<svg id="svg" version="1.1" xmlns="http://www.w3.org/2000/svg" xmlns:xlink="http://www.w3.org/1999/xlink" width="400" height="85.52631578947368" viewBox="0, 0, 400,85.52631578947368"><g id="svgg"><path id="path0" d="M287.115 14.792 C 286.958 15.068,286.642 16.183,286.484 17.025 C 286.180 18.639,285.719 20.893,285.501 21.833 C 285.426 22.154,285.239 23.017,285.085 23.750 C 284.931 24.483,284.699 25.501,284.569 26.011 C 284.439 26.521,284.333 27.116,284.333 27.332 C 284.333 27.549,284.264 27.957,284.180 28.238 C 284.049 28.678,283.662 30.435,283.388 31.832 C 283.178 32.904,282.797 32.890,282.276 31.792 C 281.720 30.619,279.635 28.500,279.037 28.500 C 278.946 28.500,278.657 28.388,278.394 28.251 C 278.131 28.114,277.800 28.002,277.658 28.001 C 277.516 28.000,277.329 27.929,277.242 27.843 C 276.640 27.247,270.150 27.669,269.425 28.351 C 269.338 28.433,269.144 28.500,268.994 28.500 C 268.552 28.500,266.181 29.814,264.833 30.807 C 255.525 37.658,252.731 53.146,259.516 60.284 C 260.186 60.988,262.312 62.500,262.634 62.500 C 262.729 62.500,263.019 62.607,263.278 62.737 C 264.389 63.297,265.262 63.417,268.202 63.415 C 270.325 63.414,271.212 63.355,271.360 63.207 C 271.474 63.093,271.747 63.000,271.966 63.000 C 273.253 63.000,276.316 61.170,278.495 59.100 L 279.740 57.917 279.919 59.333 C 280.018 60.112,280.198 60.938,280.320 61.167 C 280.622 61.736,281.352 62.500,281.594 62.500 C 281.703 62.500,281.886 62.613,282.000 62.750 C 282.114 62.887,282.371 63.000,282.570 63.000 C 282.770 63.000,283.027 63.094,283.142 63.208 C 283.444 63.510,289.314 63.496,290.333 63.192 C 291.511 62.840,291.575 62.777,291.688 61.874 C 291.746 61.412,291.846 60.947,291.912 60.841 C 291.978 60.735,292.096 60.258,292.174 59.782 C 292.253 59.306,292.437 58.354,292.583 57.667 C 292.730 56.979,292.914 56.042,292.992 55.583 C 293.070 55.125,293.217 54.539,293.317 54.281 C 293.685 53.338,293.550 52.612,292.955 52.319 C 291.785 51.745,291.748 49.466,292.849 45.738 C 292.932 45.457,293.000 45.020,293.000 44.769 C 293.000 44.517,293.075 44.170,293.168 43.998 C 293.260 43.826,293.405 43.249,293.491 42.717 C 293.576 42.185,293.767 41.225,293.916 40.583 C 294.065 39.942,294.241 39.042,294.307 38.583 C 294.373 38.125,294.478 37.668,294.540 37.568 C 294.603 37.468,294.728 36.980,294.818 36.485 C 294.908 35.989,295.101 35.021,295.246 34.333 C 295.392 33.646,295.574 32.746,295.651 32.333 C 295.847 31.279,296.151 29.854,296.326 29.167 C 296.408 28.846,296.598 27.946,296.748 27.167 C 296.898 26.387,297.087 25.525,297.169 25.250 C 297.251 24.975,297.368 24.355,297.431 23.871 C 297.493 23.388,297.609 22.952,297.689 22.903 C 297.768 22.854,297.833 22.543,297.833 22.213 C 297.833 21.883,297.941 21.231,298.073 20.765 C 298.205 20.298,298.401 19.467,298.509 18.917 C 298.616 18.367,298.808 17.479,298.936 16.945 C 299.063 16.410,299.167 15.679,299.167 15.320 L 299.167 14.667 293.177 14.667 C 289.882 14.667,287.154 14.723,287.115 14.792 M114.250 15.657 C 108.068 16.332,102.552 19.535,99.284 24.349 C 98.536 25.451,97.500 27.510,97.500 27.895 C 97.500 28.008,97.433 28.171,97.351 28.258 C 97.131 28.492,96.843 29.837,96.552 32.000 C 95.810 37.500,97.830 41.138,103.000 43.613 C 105.112 44.624,105.608 44.833,105.890 44.833 C 106.032 44.833,106.193 44.908,106.250 45.000 C 106.307 45.092,106.468 45.167,106.610 45.167 C 106.751 45.167,107.103 45.268,107.391 45.391 C 107.680 45.515,108.329 45.750,108.833 45.915 C 112.478 47.102,113.961 48.456,113.498 50.175 C 113.112 51.607,112.326 52.000,109.844 52.000 C 107.764 52.000,106.427 51.729,103.667 50.747 C 102.548 50.349,99.500 48.811,99.500 48.645 C 99.500 48.565,99.422 48.500,99.326 48.500 C 99.231 48.500,98.746 48.200,98.250 47.833 C 96.908 46.842,97.401 46.406,93.361 52.167 C 92.558 53.313,91.459 54.887,90.920 55.667 C 90.380 56.446,89.784 57.296,89.594 57.557 L 89.250 58.030 89.750 58.436 C 90.025 58.659,90.438 58.941,90.667 59.063 C 92.069 59.811,93.448 60.461,94.750 60.986 C 94.933 61.060,95.367 61.243,95.714 61.394 C 96.061 61.544,96.477 61.667,96.639 61.667 C 96.801 61.667,97.005 61.731,97.092 61.810 C 97.251 61.955,98.188 62.236,99.417 62.507 C 100.028 62.641,100.460 62.730,102.667 63.171 C 105.270 63.692,113.019 63.370,114.293 62.688 C 114.486 62.585,114.870 62.500,115.146 62.500 C 115.421 62.500,115.693 62.425,115.750 62.333 C 115.807 62.242,115.968 62.167,116.110 62.167 C 116.530 62.167,119.697 60.703,119.806 60.458 C 119.836 60.390,119.934 60.333,120.023 60.333 C 120.927 60.333,124.205 57.099,125.598 54.833 C 126.980 52.586,127.547 50.727,127.840 47.480 C 128.362 41.698,126.389 38.222,121.167 35.725 C 118.891 34.637,117.023 33.833,116.770 33.834 C 116.668 33.834,116.096 33.638,115.500 33.399 C 114.904 33.159,114.117 32.850,113.750 32.712 C 110.821 31.609,110.041 30.676,110.481 28.807 C 110.979 26.695,114.737 26.190,118.667 27.708 C 120.039 28.237,122.719 29.552,123.000 29.833 C 123.386 30.220,124.736 30.995,124.834 30.887 C 124.902 30.812,125.644 29.813,126.484 28.667 C 127.323 27.521,128.102 26.467,128.214 26.326 C 128.325 26.184,128.677 25.697,128.995 25.243 C 129.313 24.788,129.634 24.342,129.708 24.250 C 130.650 23.085,132.167 20.854,132.167 20.634 C 132.167 20.317,132.152 20.308,129.306 18.897 C 125.909 17.211,124.562 16.722,121.146 15.929 C 119.853 15.630,115.925 15.475,114.250 15.657 M321.702 16.198 C 321.591 16.309,321.500 16.549,321.500 16.731 C 321.500 16.913,321.397 17.517,321.270 18.073 C 320.868 19.841,320.138 23.254,319.841 24.750 C 319.732 25.300,319.544 26.200,319.422 26.750 C 319.301 27.300,319.115 28.162,319.009 28.667 C 318.903 29.171,318.712 30.071,318.584 30.667 C 318.455 31.262,318.227 32.350,318.076 33.083 C 317.925 33.817,317.741 34.679,317.667 35.000 C 317.538 35.556,317.330 36.544,316.752 39.333 C 316.609 40.021,316.422 40.921,316.337 41.333 C 315.994 42.984,315.639 47.107,315.749 48.163 C 316.590 56.273,318.875 59.806,324.917 62.335 C 325.100 62.412,325.438 62.514,325.667 62.561 C 325.896 62.608,326.383 62.724,326.750 62.818 C 329.359 63.487,336.114 63.409,337.447 62.695 C 337.648 62.588,337.983 62.500,338.192 62.500 C 338.623 62.500,339.671 62.146,340.963 61.563 C 341.447 61.345,341.948 61.167,342.078 61.167 C 342.208 61.167,342.355 61.099,342.406 61.017 C 342.457 60.935,342.785 60.719,343.134 60.536 C 348.153 57.920,352.441 52.752,354.917 46.333 C 355.076 45.921,355.265 45.433,355.336 45.250 C 355.894 43.807,356.526 41.427,357.170 38.333 C 357.256 37.921,357.437 37.058,357.573 36.417 C 357.709 35.775,357.939 34.688,358.085 34.000 C 358.230 33.313,358.421 32.520,358.508 32.238 C 358.595 31.957,358.667 31.562,358.667 31.361 C 358.667 31.160,358.773 30.565,358.903 30.039 C 359.033 29.513,359.217 28.708,359.310 28.250 C 359.913 25.301,360.051 24.655,360.252 23.833 C 360.375 23.329,360.562 22.467,360.667 21.917 C 360.771 21.367,360.958 20.467,361.081 19.917 C 361.748 16.942,361.857 16.340,361.757 16.178 C 361.586 15.902,349.341 15.932,349.268 16.208 C 349.013 17.166,348.768 18.206,348.648 18.833 C 348.569 19.246,348.386 20.108,348.242 20.750 C 348.098 21.392,347.915 22.292,347.836 22.750 C 347.702 23.524,347.512 24.401,347.167 25.833 C 346.941 26.773,346.635 28.192,346.484 29.000 C 346.408 29.412,346.225 30.313,346.080 31.000 C 345.934 31.688,345.741 32.656,345.651 33.151 C 345.561 33.647,345.449 34.115,345.402 34.191 C 345.355 34.266,345.246 34.723,345.160 35.206 C 345.074 35.688,344.886 36.608,344.744 37.250 C 344.601 37.892,344.421 38.801,344.343 39.270 C 344.265 39.740,344.118 40.279,344.017 40.468 C 343.916 40.657,343.831 40.985,343.828 41.197 C 343.822 41.605,343.291 43.264,343.108 43.448 C 343.049 43.507,343.000 43.694,343.000 43.863 C 343.000 44.033,342.928 44.301,342.839 44.461 C 342.751 44.620,342.520 45.114,342.327 45.558 C 339.915 51.116,334.200 53.766,330.850 50.880 C 329.101 49.374,328.282 45.938,328.853 42.500 C 328.952 41.904,329.096 41.004,329.172 40.500 C 329.249 39.996,329.430 39.058,329.574 38.417 C 329.719 37.775,329.915 36.807,330.010 36.266 C 330.104 35.725,330.254 35.149,330.341 34.986 C 330.428 34.822,330.500 34.515,330.500 34.303 C 330.499 33.955,330.775 32.583,331.164 31.000 C 331.478 29.720,331.698 28.710,331.836 27.917 C 331.915 27.458,332.102 26.558,332.251 25.917 C 332.400 25.275,332.585 24.360,332.662 23.884 C 332.739 23.408,332.844 22.951,332.895 22.869 C 332.945 22.787,333.061 22.314,333.151 21.818 C 333.241 21.322,333.434 20.354,333.579 19.667 C 333.878 18.248,334.136 16.908,334.204 16.417 C 334.261 16.006,322.106 15.794,321.702 16.198 M148.250 27.612 C 147.700 27.652,147.179 27.756,147.092 27.842 C 147.005 27.929,146.808 28.000,146.655 28.000 C 145.488 28.000,142.307 29.503,140.167 31.065 C 133.707 35.780,129.994 44.837,131.258 52.793 C 131.507 54.359,131.590 54.700,132.118 56.333 C 133.142 59.495,135.539 62.055,138.489 63.137 C 139.461 63.494,144.849 63.551,145.192 63.208 C 145.306 63.094,145.570 63.000,145.778 63.000 C 146.104 63.000,146.716 62.787,147.667 62.342 C 149.018 61.710,150.614 60.532,151.837 59.262 C 152.635 58.433,153.384 58.243,152.925 58.987 C 152.824 59.149,152.404 61.057,152.169 62.417 C 152.038 63.177,151.890 63.860,151.503 65.500 C 151.427 65.821,151.242 66.683,151.092 67.417 C 150.941 68.150,150.747 69.070,150.659 69.461 C 149.605 74.171,152.883 77.360,158.540 77.125 C 163.320 76.926,164.591 76.599,164.744 75.528 C 164.805 75.100,164.919 74.525,164.997 74.250 C 165.075 73.975,165.264 73.150,165.417 72.417 C 165.829 70.441,165.951 69.869,166.233 68.583 C 166.721 66.353,166.693 66.141,165.863 65.843 C 164.237 65.257,164.018 64.360,164.743 61.250 C 164.893 60.608,165.087 59.645,165.174 59.109 C 165.262 58.574,165.387 58.049,165.453 57.943 C 165.519 57.837,165.626 57.375,165.690 56.917 C 165.754 56.458,165.933 55.521,166.086 54.833 C 166.367 53.579,166.423 53.312,166.896 51.000 C 167.037 50.313,167.275 49.188,167.425 48.500 C 167.576 47.813,167.760 46.950,167.833 46.583 C 167.907 46.217,168.088 45.354,168.236 44.667 C 168.383 43.979,168.573 43.030,168.658 42.557 C 168.742 42.084,168.886 41.409,168.978 41.057 C 169.128 40.482,169.332 39.524,169.860 36.917 C 169.953 36.458,170.127 35.633,170.247 35.083 C 170.467 34.074,170.585 33.510,171.082 31.083 C 171.232 30.350,171.425 29.479,171.511 29.147 C 171.597 28.816,171.667 28.460,171.667 28.356 C 171.667 28.219,170.203 28.167,166.352 28.167 L 161.038 28.167 160.959 28.625 C 160.915 28.877,160.798 29.421,160.699 29.833 C 160.600 30.246,160.433 30.996,160.329 31.500 C 160.043 32.875,159.996 33.000,159.765 33.000 C 159.648 33.000,159.409 32.719,159.235 32.375 C 157.294 28.560,154.123 27.185,148.250 27.612 M229.667 27.601 C 223.566 28.136,216.657 34.430,214.407 41.500 C 214.247 42.004,214.061 42.492,213.994 42.583 C 213.928 42.675,213.835 43.012,213.788 43.333 C 213.741 43.654,213.545 44.779,213.353 45.833 C 212.909 48.262,212.899 50.697,213.326 52.917 C 214.179 57.356,215.414 59.442,218.583 61.793 C 221.569 64.008,227.811 64.079,231.991 61.945 C 233.277 61.288,234.068 60.680,235.524 59.229 C 236.928 57.830,237.167 57.793,237.167 58.975 C 237.167 60.588,238.020 62.141,239.221 62.713 C 239.512 62.852,239.968 63.067,240.235 63.191 C 241.015 63.555,246.635 63.495,247.858 63.109 C 248.829 62.804,248.993 62.598,248.998 61.678 C 248.999 61.456,249.070 61.043,249.156 60.762 C 249.330 60.191,249.638 58.806,249.846 57.667 C 250.097 56.288,250.455 54.586,250.547 54.333 C 250.950 53.231,250.849 52.697,250.165 52.312 C 249.211 51.776,248.870 49.154,249.600 47.974 C 249.654 47.886,249.761 47.425,249.838 46.949 C 249.915 46.473,250.099 45.558,250.247 44.917 C 250.395 44.275,250.587 43.312,250.674 42.776 C 250.762 42.240,250.875 41.734,250.927 41.651 C 250.978 41.567,251.088 41.143,251.170 40.708 C 251.252 40.273,251.439 39.354,251.584 38.667 C 251.730 37.979,251.914 37.027,251.992 36.551 C 252.071 36.075,252.187 35.602,252.250 35.500 C 252.313 35.398,252.428 34.925,252.504 34.449 C 252.581 33.973,252.769 33.021,252.922 32.333 C 253.213 31.021,253.391 30.166,253.591 29.123 L 253.711 28.496 247.480 28.540 L 241.250 28.583 241.135 29.333 C 240.692 32.240,240.049 33.555,239.732 32.208 C 239.390 30.760,236.286 28.000,234.998 28.000 C 234.853 28.000,234.659 27.925,234.567 27.834 C 234.390 27.656,230.916 27.491,229.667 27.601 M384.338 27.612 C 383.837 27.653,383.349 27.747,383.255 27.822 C 383.161 27.896,382.793 28.009,382.438 28.073 C 382.083 28.137,381.670 28.249,381.521 28.322 C 381.372 28.394,380.804 28.671,380.258 28.935 C 379.011 29.540,377.668 30.521,376.311 31.816 C 375.702 32.397,375.194 32.760,375.109 32.676 C 374.893 32.459,375.326 29.662,375.685 28.961 C 376.104 28.142,376.219 28.159,370.458 28.206 L 365.083 28.250 364.982 28.917 C 364.926 29.283,364.755 30.146,364.601 30.833 C 364.447 31.521,364.283 32.308,364.236 32.583 C 364.189 32.858,364.047 33.496,363.920 34.000 C 363.794 34.504,363.605 35.367,363.500 35.917 C 363.395 36.467,363.209 37.367,363.085 37.917 C 362.962 38.467,362.740 39.517,362.593 40.250 C 362.206 42.175,362.044 42.947,361.772 44.167 C 361.531 45.254,361.121 47.195,360.807 48.750 C 360.714 49.208,360.538 50.033,360.416 50.583 C 360.211 51.508,359.893 53.026,359.471 55.083 C 359.251 56.157,358.904 57.778,358.578 59.250 C 358.436 59.892,358.244 60.792,358.150 61.250 C 358.057 61.708,357.900 62.421,357.802 62.833 C 357.703 63.246,357.560 63.958,357.485 64.417 C 357.409 64.875,357.229 65.775,357.084 66.417 C 356.939 67.058,356.781 67.808,356.732 68.083 C 356.684 68.358,356.543 69.033,356.420 69.583 C 356.297 70.133,356.110 70.996,356.006 71.500 C 355.688 73.040,355.326 74.697,355.068 75.798 C 354.725 77.261,354.314 77.167,361.014 77.167 L 367.008 77.167 367.185 76.708 C 367.282 76.456,367.425 75.912,367.502 75.500 C 367.727 74.292,368.132 72.340,368.418 71.083 C 368.565 70.442,368.747 69.579,368.824 69.167 C 368.902 68.754,369.089 67.854,369.241 67.167 C 369.634 65.383,369.989 63.702,370.155 62.833 C 370.234 62.421,370.423 61.521,370.577 60.833 C 370.730 60.146,370.907 59.327,370.970 59.014 C 371.100 58.368,371.443 58.154,371.614 58.611 C 372.334 60.536,374.904 62.961,376.258 62.992 C 376.446 62.996,376.694 63.094,376.808 63.208 C 377.111 63.511,382.653 63.496,383.667 63.190 C 385.903 62.516,388.204 61.353,389.401 60.292 C 389.581 60.131,389.788 60.000,389.859 60.000 C 390.131 60.000,393.133 56.864,393.921 55.757 C 395.919 52.947,397.407 49.545,398.069 46.274 C 398.622 43.536,398.316 36.427,397.614 35.726 C 397.552 35.663,397.500 35.489,397.500 35.341 C 397.500 35.018,396.477 33.020,395.832 32.083 C 394.790 30.571,392.556 28.833,390.917 28.261 C 390.458 28.101,389.954 27.902,389.795 27.819 C 389.464 27.645,385.691 27.502,384.338 27.612 M178.035 28.375 C 177.941 28.490,177.814 28.883,177.754 29.250 C 177.637 29.964,177.431 30.978,177.078 32.583 C 176.957 33.133,176.734 34.183,176.582 34.917 C 176.430 35.650,176.237 36.480,176.153 36.762 C 176.069 37.043,176.000 37.465,176.000 37.699 C 176.000 37.933,175.887 38.444,175.750 38.833 C 175.612 39.223,175.500 39.732,175.500 39.965 C 175.500 40.197,175.392 40.769,175.260 41.235 C 175.128 41.702,174.935 42.533,174.832 43.083 C 174.728 43.633,174.539 44.496,174.413 45.000 C 174.286 45.504,174.141 46.179,174.091 46.500 C 174.040 46.821,173.882 47.608,173.739 48.250 C 173.596 48.892,173.413 49.792,173.332 50.250 C 173.251 50.708,173.093 51.383,172.980 51.750 C 172.851 52.166,172.771 53.512,172.766 55.333 C 172.758 58.402,172.735 58.279,173.643 60.146 C 174.066 61.016,175.328 62.231,176.250 62.656 C 176.708 62.867,177.230 63.116,177.409 63.209 C 177.889 63.459,181.867 63.555,183.500 63.357 C 185.980 63.055,186.927 62.794,189.000 61.839 C 190.154 61.308,192.607 59.617,193.250 58.910 C 194.331 57.721,194.654 57.788,194.749 59.223 C 194.868 61.023,195.512 62.098,196.833 62.699 C 197.154 62.845,197.635 63.067,197.901 63.191 C 198.686 63.557,204.302 63.495,205.533 63.107 C 206.483 62.808,206.483 62.807,206.585 62.029 C 206.641 61.600,206.757 61.078,206.843 60.867 C 206.930 60.657,207.000 60.324,207.000 60.128 C 207.000 59.932,207.105 59.317,207.233 58.761 C 207.361 58.205,207.593 57.150,207.749 56.417 C 207.905 55.683,208.096 54.821,208.174 54.500 C 208.563 52.905,208.531 52.705,207.824 52.308 C 206.894 51.786,206.654 50.326,207.169 48.333 C 207.276 47.921,207.415 47.208,207.478 46.750 C 207.542 46.292,207.644 45.835,207.707 45.735 C 207.810 45.569,207.917 45.065,208.319 42.833 C 208.393 42.421,208.535 41.746,208.634 41.333 C 208.856 40.408,209.282 38.423,209.403 37.750 C 209.453 37.475,209.611 36.725,209.755 36.083 C 209.899 35.442,210.085 34.579,210.168 34.167 C 210.251 33.754,210.435 32.854,210.575 32.167 C 210.716 31.479,210.900 30.542,210.985 30.083 C 211.070 29.625,211.216 29.051,211.309 28.809 C 211.563 28.150,211.724 28.167,205.149 28.167 L 199.020 28.167 198.912 28.958 C 198.852 29.394,198.740 29.975,198.662 30.250 C 198.498 30.834,198.183 32.266,197.984 33.333 C 197.908 33.746,197.725 34.646,197.580 35.333 C 197.434 36.021,197.241 36.989,197.151 37.485 C 197.061 37.980,196.945 38.453,196.895 38.536 C 196.844 38.618,196.738 39.075,196.659 39.551 C 196.580 40.027,196.395 40.942,196.247 41.583 C 196.099 42.225,195.915 43.140,195.838 43.616 C 195.761 44.092,195.646 44.565,195.583 44.667 C 195.520 44.769,195.403 45.242,195.322 45.718 C 194.631 49.812,193.792 51.142,191.041 52.504 C 187.320 54.347,185.148 52.241,186.137 47.750 C 186.258 47.200,186.457 46.300,186.580 45.750 C 186.703 45.200,186.894 44.300,187.004 43.750 C 187.114 43.200,187.308 42.313,187.436 41.778 C 187.563 41.244,187.667 40.650,187.667 40.460 C 187.667 40.269,187.776 39.731,187.909 39.265 C 188.178 38.322,188.794 35.382,188.999 34.063 C 189.072 33.593,189.215 33.055,189.316 32.866 C 189.417 32.677,189.500 32.279,189.500 31.981 C 189.500 31.684,189.570 31.210,189.656 30.928 C 189.742 30.647,189.886 30.079,189.975 29.667 C 190.065 29.254,190.191 28.748,190.255 28.542 L 190.372 28.167 184.290 28.167 C 179.627 28.167,178.167 28.215,178.035 28.375 M152.417 38.088 C 153.285 38.349,154.099 38.854,154.462 39.356 C 154.579 39.518,154.773 39.750,154.895 39.871 C 155.096 40.072,155.257 40.392,155.936 41.942 C 156.231 42.614,156.229 43.649,155.931 44.822 C 155.801 45.333,155.569 46.350,155.415 47.083 C 154.928 49.400,154.834 49.609,153.849 50.574 C 151.432 52.942,149.112 53.673,146.822 52.790 C 143.842 51.639,143.058 47.173,145.067 42.792 C 145.351 42.173,145.640 41.667,145.708 41.667 C 145.777 41.667,145.833 41.569,145.833 41.449 C 145.833 40.634,148.859 38.369,150.417 38.017 C 151.364 37.804,151.487 37.808,152.417 38.088 M234.367 38.020 C 237.187 38.617,238.811 41.904,237.945 45.265 C 237.806 45.807,237.566 46.850,237.413 47.583 C 237.260 48.317,237.094 49.065,237.044 49.245 C 236.604 50.846,232.974 53.086,230.833 53.077 C 223.033 53.046,225.400 38.814,233.367 37.848 C 233.431 37.840,233.881 37.917,234.367 38.020 M277.135 38.025 C 279.891 38.699,281.614 42.206,280.702 45.291 C 280.547 45.818,280.263 47.112,279.895 48.980 C 279.525 50.849,275.323 53.352,272.967 53.106 C 265.699 52.346,268.561 38.917,276.218 37.852 C 276.292 37.842,276.704 37.919,277.135 38.025 M381.764 38.028 C 383.294 38.331,384.148 38.986,384.981 40.498 C 385.697 41.797,385.746 45.742,385.059 46.745 C 384.935 46.926,384.833 47.201,384.833 47.357 C 384.833 47.671,384.321 48.718,384.125 48.806 C 384.056 48.836,384.000 48.938,384.000 49.032 C 384.000 49.229,383.111 50.391,382.494 51.000 C 380.054 53.409,377.464 53.820,375.557 52.101 C 374.325 50.991,373.152 48.422,373.405 47.389 C 373.469 47.129,373.583 46.579,373.659 46.167 C 373.735 45.754,373.920 44.892,374.069 44.250 C 374.218 43.608,374.405 42.762,374.483 42.369 C 374.562 41.976,374.766 41.497,374.938 41.304 C 376.478 39.572,378.007 38.490,379.483 38.085 C 380.505 37.805,380.619 37.802,381.764 38.028 " stroke="none" fill="#27b475" fill-rule="evenodd"></path><path id="path1" d="M27.351 6.252 C 26.020 6.984,25.818 8.393,26.316 13.500 C 26.671 17.142,26.883 19.831,27.004 22.250 C 27.205 26.269,27.428 27.656,27.965 28.222 C 28.213 28.484,30.517 30.821,33.083 33.413 C 39.590 39.987,38.517 40.018,45.394 33.056 C 48.156 30.260,50.470 27.878,50.535 27.763 C 50.727 27.424,51.233 21.663,51.488 16.917 C 51.562 15.542,51.671 14.154,51.730 13.833 C 51.969 12.539,52.146 8.354,51.985 7.774 C 51.886 7.415,51.551 6.951,51.131 6.592 L 50.440 6.000 39.095 6.016 C 30.059 6.029,27.669 6.077,27.351 6.252 M5.083 28.918 C 3.455 29.734,3.583 28.631,3.583 41.837 L 3.583 53.425 3.971 53.917 C 4.807 54.980,7.090 55.393,9.001 54.828 C 9.321 54.733,10.821 54.588,12.333 54.505 C 15.081 54.354,17.774 54.142,20.917 53.830 C 21.833 53.739,22.988 53.665,23.482 53.666 C 25.008 53.667,25.440 53.332,30.554 48.181 C 36.913 41.776,36.849 42.006,33.277 38.371 C 24.174 29.109,25.485 30.053,21.417 29.830 C 17.770 29.631,14.013 29.335,12.917 29.161 C 12.367 29.074,11.242 28.998,10.417 28.993 C 9.020 28.984,7.310 28.817,6.333 28.595 C 6.066 28.534,5.619 28.649,5.083 28.918 M71.333 28.690 C 71.104 28.782,69.642 28.922,68.083 28.999 C 65.304 29.136,62.650 29.345,59.500 29.672 C 58.629 29.763,57.222 29.836,56.372 29.835 C 55.462 29.834,54.402 29.946,53.789 30.109 L 52.750 30.384 47.872 35.288 C 40.843 42.355,40.837 41.285,47.947 48.365 C 53.122 53.518,53.311 53.667,54.712 53.667 C 55.183 53.667,56.359 53.742,57.326 53.835 C 61.406 54.226,63.075 54.356,65.875 54.501 C 67.502 54.586,68.979 54.733,69.156 54.828 C 70.732 55.671,73.933 54.778,74.513 53.333 C 74.964 52.212,74.996 31.581,74.549 30.462 C 74.004 29.098,72.446 28.239,71.333 28.690 M37.750 45.648 C 37.031 46.099,27.501 55.727,27.493 56.012 C 27.489 56.143,27.410 56.813,27.318 57.500 C 27.226 58.188,27.087 59.913,27.010 61.333 C 26.869 63.919,26.636 66.883,26.316 70.167 C 25.978 73.638,26.031 76.010,26.460 76.612 C 27.235 77.697,27.038 77.682,39.346 77.630 L 50.443 77.583 51.052 77.118 C 52.154 76.278,52.286 75.173,51.819 70.694 C 51.717 69.717,51.573 67.867,51.500 66.583 C 51.196 61.294,50.715 56.238,50.470 55.769 C 50.225 55.299,41.428 46.426,40.600 45.814 C 39.800 45.222,38.545 45.149,37.750 45.648 " stroke="none" fill="#545c64" fill-rule="evenodd"></path><path id="path2" d="M0.000 42.750 L 0.000 85.500 200.000 85.500 L 400.000 85.500 400.000 42.750 L 400.000 0.000 200.000 0.000 L 0.000 0.000 0.000 42.750 M51.211 6.089 C 52.476 6.949,52.699 8.067,52.339 11.750 C 52.022 14.996,51.785 17.945,51.664 20.167 C 51.436 24.331,51.139 27.243,50.882 27.833 C 50.586 28.512,41.175 38.050,40.433 38.423 C 40.155 38.563,39.482 38.667,38.855 38.667 L 37.761 38.667 32.500 33.375 C 26.597 27.437,26.834 27.779,26.832 25.211 C 26.831 24.407,26.753 23.113,26.658 22.333 C 26.564 21.554,26.415 19.867,26.329 18.583 C 26.160 16.076,25.738 10.882,25.571 9.250 C 25.435 7.923,25.865 6.887,26.849 6.174 L 27.550 5.667 39.070 5.667 L 50.589 5.667 51.211 6.089 M299.483 14.319 C 299.719 14.469,299.708 14.639,299.338 16.667 C 298.901 19.059,298.780 19.599,298.647 19.742 C 298.566 19.829,298.500 20.160,298.500 20.477 C 298.500 20.794,298.392 21.436,298.260 21.902 C 298.128 22.368,297.935 23.200,297.830 23.750 C 297.725 24.300,297.565 25.050,297.473 25.417 C 297.381 25.783,297.244 26.473,297.169 26.949 C 297.093 27.425,296.990 27.882,296.939 27.964 C 296.888 28.047,296.772 28.520,296.682 29.015 C 296.592 29.511,296.399 30.479,296.254 31.167 C 296.108 31.854,295.926 32.754,295.849 33.167 C 295.706 33.935,295.414 35.294,295.169 36.333 C 295.094 36.654,294.909 37.517,294.759 38.250 C 294.608 38.983,294.376 40.046,294.243 40.611 C 294.109 41.176,294.000 41.817,294.000 42.036 C 294.000 42.254,293.933 42.505,293.850 42.592 C 293.768 42.679,293.667 43.050,293.627 43.417 C 293.586 43.783,293.468 44.421,293.366 44.833 C 293.263 45.246,293.059 46.183,292.914 46.917 C 292.768 47.650,292.573 48.512,292.480 48.833 C 292.388 49.154,292.335 49.904,292.364 50.500 L 292.417 51.583 293.208 51.976 C 294.032 52.385,294.104 52.545,293.847 53.405 C 293.763 53.686,293.605 54.367,293.497 54.917 C 293.138 56.742,293.035 57.240,292.755 58.500 C 292.602 59.188,292.409 60.125,292.325 60.583 C 291.835 63.261,291.752 63.351,289.500 63.676 C 286.368 64.127,283.905 64.010,282.517 63.344 C 282.370 63.273,281.974 63.083,281.637 62.922 C 280.529 62.390,279.507 60.796,279.497 59.586 C 279.491 58.760,279.235 58.834,277.991 60.017 C 277.309 60.666,276.600 61.266,276.417 61.351 C 276.233 61.436,275.708 61.732,275.250 62.008 C 274.792 62.285,274.304 62.550,274.167 62.597 C 274.029 62.645,273.704 62.792,273.445 62.925 C 273.185 63.058,272.807 63.167,272.603 63.167 C 272.400 63.167,272.162 63.235,272.075 63.319 C 271.277 64.085,264.377 64.078,263.903 63.311 C 263.854 63.231,263.664 63.167,263.481 63.167 C 263.298 63.167,262.721 62.931,262.199 62.644 C 258.632 60.680,256.852 58.142,255.761 53.466 C 255.463 52.188,255.405 47.097,255.674 45.833 C 255.762 45.421,255.903 44.708,255.987 44.250 C 256.918 39.160,260.198 33.943,264.667 30.444 C 265.716 29.623,268.698 28.090,269.815 27.797 C 275.529 26.298,280.633 27.726,282.443 31.327 L 282.802 32.043 283.068 31.530 C 283.214 31.248,283.333 30.762,283.333 30.450 C 283.333 30.138,283.402 29.666,283.486 29.400 C 283.570 29.134,283.763 28.317,283.915 27.583 C 284.068 26.850,284.272 25.912,284.370 25.500 C 284.468 25.087,284.607 24.412,284.679 24.000 C 284.751 23.587,284.932 22.725,285.082 22.083 C 285.231 21.442,285.407 20.542,285.473 20.083 C 285.539 19.625,285.647 19.163,285.714 19.057 C 285.780 18.951,285.906 18.426,285.994 17.891 C 286.671 13.772,285.907 14.166,293.207 14.169 C 296.531 14.171,299.355 14.238,299.483 14.319 M119.917 15.405 C 120.833 15.527,122.296 15.815,123.167 16.046 C 124.662 16.441,124.996 16.555,126.275 17.107 C 126.564 17.231,126.856 17.333,126.923 17.333 C 127.262 17.333,132.110 19.875,132.488 20.251 C 132.810 20.572,132.636 20.922,131.146 22.945 C 130.482 23.846,129.303 25.446,128.525 26.500 C 127.748 27.554,126.880 28.734,126.597 29.121 C 125.205 31.029,124.939 31.333,124.657 31.333 C 124.490 31.333,124.311 31.265,124.259 31.181 C 123.943 30.670,120.331 28.696,118.417 27.989 C 113.928 26.330,110.286 27.258,110.723 29.950 C 110.909 31.093,111.645 31.561,115.500 32.988 C 117.442 33.707,119.677 34.592,120.155 34.833 C 120.299 34.905,120.904 35.205,121.500 35.500 C 124.365 36.917,127.500 39.900,127.500 41.209 C 127.500 41.332,127.566 41.505,127.646 41.592 C 127.954 41.926,128.333 44.279,128.333 45.854 C 128.333 52.679,124.928 58.359,119.071 61.301 C 117.615 62.033,116.898 62.333,116.610 62.333 C 116.468 62.333,116.307 62.408,116.250 62.500 C 116.193 62.592,115.959 62.667,115.729 62.667 C 115.499 62.667,115.161 62.747,114.978 62.845 C 112.766 64.029,106.436 64.175,100.750 63.174 C 99.495 62.953,96.436 62.047,95.083 61.496 C 94.808 61.384,94.433 61.236,94.250 61.167 C 94.067 61.098,93.412 60.808,92.795 60.521 C 92.178 60.234,91.597 60.000,91.504 60.000 C 91.410 60.000,91.333 59.944,91.332 59.875 C 91.331 59.806,90.841 59.490,90.243 59.172 C 89.524 58.790,89.123 58.468,89.061 58.221 C 88.956 57.800,89.134 57.516,92.215 53.202 C 92.655 52.587,93.211 51.783,93.452 51.417 C 94.468 49.868,96.864 46.667,97.006 46.667 C 97.090 46.667,97.893 47.161,98.788 47.765 C 100.570 48.966,103.184 50.272,104.750 50.742 C 105.300 50.908,105.915 51.105,106.117 51.181 C 108.208 51.966,112.124 51.758,112.814 50.824 C 113.878 49.384,113.033 47.964,110.500 46.937 C 110.087 46.769,109.635 46.575,109.495 46.504 C 109.354 46.433,108.999 46.323,108.705 46.258 C 108.411 46.194,108.128 46.072,108.075 45.987 C 108.023 45.903,107.837 45.833,107.662 45.833 C 107.488 45.833,107.061 45.710,106.714 45.560 C 106.367 45.410,105.933 45.232,105.750 45.164 C 104.215 44.594,102.830 43.997,102.667 43.833 C 102.621 43.788,102.283 43.602,101.917 43.421 C 97.893 41.435,95.842 37.932,96.054 33.404 C 96.148 31.403,96.721 28.353,97.157 27.536 C 97.241 27.379,97.464 26.912,97.652 26.500 C 101.188 18.758,110.450 14.143,119.917 15.405 M334.526 15.908 C 334.665 16.212,334.660 16.497,334.508 17.033 C 334.396 17.427,334.244 18.087,334.170 18.500 C 334.096 18.912,333.910 19.813,333.756 20.500 C 333.603 21.188,333.415 22.140,333.338 22.616 C 333.261 23.092,333.146 23.565,333.083 23.667 C 333.020 23.769,332.906 24.242,332.828 24.718 C 332.751 25.194,332.571 26.108,332.427 26.750 C 332.284 27.392,332.098 28.329,332.015 28.833 C 331.932 29.337,331.782 29.961,331.682 30.219 C 331.582 30.477,331.500 30.884,331.500 31.124 C 331.500 31.364,331.428 31.790,331.340 32.072 C 331.251 32.353,331.059 33.183,330.912 33.917 C 330.765 34.650,330.569 35.542,330.475 35.899 C 330.382 36.255,330.241 36.893,330.163 37.315 C 330.084 37.738,329.896 38.683,329.744 39.417 C 328.149 47.137,329.470 51.265,333.648 51.616 C 338.624 52.033,342.399 47.264,344.165 38.333 C 344.498 36.645,344.941 34.577,345.200 33.500 C 345.299 33.087,345.441 32.412,345.515 32.000 C 345.909 29.814,346.021 29.267,346.105 29.131 C 346.156 29.049,346.260 28.592,346.335 28.116 C 346.411 27.640,346.548 26.950,346.639 26.583 C 346.731 26.217,346.893 25.467,346.998 24.917 C 347.104 24.367,347.291 23.467,347.415 22.917 C 347.538 22.367,347.762 21.317,347.911 20.583 C 348.061 19.850,348.247 18.987,348.323 18.667 C 348.400 18.346,348.585 17.562,348.736 16.924 C 349.095 15.398,348.581 15.505,355.542 15.503 C 362.404 15.500,362.512 15.518,362.180 16.619 C 362.103 16.874,361.917 17.683,361.767 18.417 C 361.342 20.491,360.981 22.195,360.832 22.833 C 360.757 23.154,360.572 24.017,360.421 24.750 C 360.270 25.483,360.047 26.533,359.926 27.083 C 359.805 27.633,359.617 28.533,359.508 29.083 C 359.399 29.633,359.209 30.533,359.085 31.083 C 358.962 31.633,358.740 32.683,358.591 33.417 C 358.442 34.150,358.249 34.980,358.160 35.262 C 358.072 35.543,358.000 35.961,358.000 36.190 C 358.000 36.420,357.896 36.939,357.769 37.345 C 357.643 37.751,357.450 38.608,357.340 39.250 C 357.231 39.892,357.035 40.810,356.904 41.292 C 356.774 41.773,356.550 42.598,356.407 43.125 C 356.264 43.652,356.077 44.214,355.990 44.373 C 355.904 44.532,355.833 44.799,355.833 44.966 C 355.833 45.133,355.723 45.415,355.589 45.593 C 355.454 45.771,355.342 46.049,355.339 46.211 C 355.336 46.372,355.265 46.635,355.181 46.794 C 355.096 46.953,354.597 47.983,354.069 49.083 C 351.954 53.500,349.409 56.644,345.823 59.274 C 345.325 59.640,344.804 59.992,344.667 60.055 C 344.529 60.119,344.042 60.397,343.583 60.674 C 343.125 60.950,342.582 61.247,342.377 61.333 C 342.172 61.419,341.700 61.637,341.328 61.817 C 340.957 61.996,340.431 62.192,340.161 62.251 C 339.891 62.310,339.628 62.428,339.575 62.513 C 339.523 62.597,339.292 62.667,339.063 62.667 C 338.833 62.667,338.486 62.751,338.293 62.855 C 336.458 63.837,328.077 63.819,325.333 62.828 C 324.332 62.466,324.111 62.374,323.100 61.899 C 316.691 58.886,314.011 50.567,316.153 40.333 C 316.239 39.921,316.422 39.058,316.558 38.417 C 316.695 37.775,316.929 36.650,317.079 35.917 C 317.228 35.183,317.415 34.321,317.493 34.000 C 317.571 33.679,317.761 32.817,317.915 32.083 C 318.069 31.350,318.259 30.450,318.338 30.083 C 318.416 29.717,318.602 28.817,318.751 28.083 C 318.900 27.350,319.104 26.450,319.205 26.083 C 319.306 25.717,319.443 25.079,319.511 24.667 C 319.769 23.083,319.992 21.959,320.149 21.448 C 320.326 20.868,320.630 19.513,320.847 18.333 C 321.428 15.172,320.587 15.500,328.119 15.500 L 334.340 15.500 334.526 15.908 M153.114 27.395 C 155.632 27.805,157.560 29.108,159.087 31.432 L 159.758 32.453 160.050 31.101 C 160.852 27.395,160.006 27.820,166.481 27.873 L 171.917 27.917 171.974 28.326 C 172.006 28.551,171.945 29.027,171.838 29.383 C 171.732 29.739,171.575 30.417,171.490 30.890 C 171.406 31.363,171.219 32.275,171.076 32.917 C 170.933 33.558,170.779 34.308,170.733 34.583 C 170.655 35.058,170.295 36.734,170.000 38.000 C 169.830 38.728,169.529 40.181,169.343 41.167 C 169.266 41.579,169.079 42.442,168.928 43.083 C 168.777 43.725,168.588 44.679,168.507 45.202 C 168.426 45.726,168.311 46.235,168.250 46.333 C 168.189 46.432,168.072 46.940,167.990 47.464 C 167.907 47.988,167.723 48.942,167.580 49.583 C 167.437 50.225,167.245 51.156,167.153 51.651 C 167.062 52.147,166.946 52.618,166.897 52.699 C 166.847 52.779,166.739 53.274,166.656 53.798 C 166.574 54.321,166.389 55.275,166.245 55.917 C 166.102 56.558,165.920 57.473,165.841 57.949 C 165.762 58.425,165.656 58.882,165.605 58.964 C 165.519 59.105,165.425 59.561,165.015 61.833 C 164.924 62.337,164.757 63.037,164.644 63.388 C 164.288 64.493,165.269 65.667,166.549 65.667 C 167.065 65.667,167.198 65.985,166.981 66.699 C 166.817 67.234,166.719 67.728,166.325 70.000 C 166.222 70.596,166.069 71.155,165.985 71.242 C 165.902 71.329,165.833 71.624,165.833 71.897 C 165.833 72.171,165.725 72.812,165.594 73.322 C 165.462 73.833,165.256 74.729,165.138 75.313 C 164.848 76.742,164.810 76.773,163.042 77.072 C 156.977 78.099,152.357 76.992,150.916 74.167 C 150.753 73.846,150.541 73.433,150.445 73.250 C 150.184 72.750,150.110 70.189,150.333 69.333 C 150.440 68.921,150.588 68.246,150.663 67.833 C 150.737 67.421,150.923 66.521,151.076 65.833 C 151.229 65.146,151.427 64.178,151.517 63.682 C 151.606 63.186,151.721 62.713,151.772 62.631 C 151.869 62.474,152.126 61.075,152.277 59.887 L 152.365 59.191 151.391 60.145 C 149.925 61.582,147.284 63.167,146.355 63.167 C 146.196 63.167,145.995 63.233,145.908 63.314 C 145.060 64.103,139.838 64.124,138.083 63.345 C 136.496 62.640,135.988 62.309,134.863 61.248 C 132.892 59.388,132.057 57.798,131.094 54.072 C 130.794 52.911,130.717 46.483,130.992 45.595 C 131.079 45.314,131.271 44.521,131.417 43.833 C 131.687 42.565,131.766 42.324,132.598 40.250 C 136.116 31.472,144.785 26.041,153.114 27.395 M233.931 27.351 C 234.895 27.531,235.497 27.741,236.660 28.304 C 237.480 28.701,239.238 30.451,239.679 31.309 C 240.188 32.300,240.250 32.178,240.943 28.797 C 241.109 27.991,241.091 27.993,247.686 28.040 L 253.917 28.083 253.969 28.724 C 253.998 29.076,253.937 29.601,253.833 29.890 C 253.730 30.180,253.575 30.792,253.491 31.250 C 253.406 31.708,253.220 32.608,253.077 33.250 C 252.935 33.892,252.746 34.855,252.659 35.391 C 252.572 35.926,252.447 36.451,252.382 36.557 C 252.316 36.662,252.209 37.086,252.143 37.499 C 252.076 37.912,251.903 38.813,251.757 39.500 C 251.612 40.188,251.416 41.156,251.323 41.651 C 251.230 42.147,251.112 42.620,251.061 42.702 C 251.010 42.785,250.904 43.242,250.825 43.718 C 250.499 45.685,250.313 46.559,250.161 46.844 C 250.072 47.009,249.999 47.356,249.998 47.614 C 249.997 47.872,249.885 48.452,249.748 48.901 C 249.242 50.569,249.716 52.167,250.717 52.167 C 251.224 52.167,251.336 52.566,251.092 53.512 C 250.964 54.010,250.772 54.867,250.666 55.417 C 250.560 55.967,250.397 56.717,250.304 57.083 C 250.211 57.450,250.073 58.125,249.997 58.583 C 249.864 59.384,249.638 60.427,249.329 61.667 C 249.249 61.987,249.143 62.447,249.094 62.687 C 248.837 63.943,241.022 64.465,239.758 63.311 C 239.671 63.232,239.482 63.167,239.338 63.167 C 238.502 63.167,237.130 61.229,236.920 59.750 C 236.747 58.538,236.741 58.538,235.441 59.798 C 233.764 61.423,231.637 62.714,229.833 63.202 C 226.377 64.136,222.081 64.188,221.092 63.308 C 221.005 63.230,220.809 63.167,220.657 63.167 C 220.002 63.167,217.775 61.778,216.656 60.671 C 215.466 59.495,213.891 56.982,213.623 55.833 C 213.570 55.604,213.374 54.842,213.189 54.139 C 212.550 51.724,212.566 47.412,213.226 44.250 C 214.337 38.923,217.851 33.385,222.048 30.346 C 223.363 29.393,226.527 27.833,227.145 27.833 C 227.309 27.833,227.500 27.777,227.568 27.708 C 227.984 27.289,232.298 27.046,233.931 27.351 M388.986 27.344 C 390.185 27.538,390.296 27.574,391.722 28.230 C 397.624 30.942,400.351 39.311,398.083 47.750 C 397.935 48.300,397.770 48.938,397.716 49.167 C 397.662 49.396,397.517 49.731,397.392 49.912 C 397.268 50.093,397.167 50.357,397.167 50.498 C 397.167 51.685,394.133 56.337,391.905 58.569 C 389.822 60.655,385.888 63.167,384.703 63.167 C 384.537 63.167,384.329 63.233,384.242 63.314 C 383.447 64.052,377.837 64.077,376.083 63.350 C 374.086 62.522,372.673 61.350,371.851 59.842 L 371.356 58.933 371.250 59.425 C 371.191 59.695,371.066 60.292,370.972 60.750 C 370.614 62.492,370.292 63.949,370.067 64.844 C 369.938 65.354,369.833 65.949,369.833 66.166 C 369.833 66.382,369.763 66.790,369.677 67.072 C 369.592 67.353,369.395 68.183,369.241 68.917 C 368.696 71.502,368.537 72.260,368.334 73.250 C 368.222 73.800,368.025 74.637,367.898 75.109 C 367.771 75.581,367.667 76.191,367.667 76.464 C 367.667 77.345,367.699 77.341,360.897 77.294 L 354.583 77.250 354.634 76.500 C 354.661 76.087,354.762 75.503,354.857 75.201 C 354.953 74.899,355.091 74.261,355.165 73.784 C 355.239 73.307,355.422 72.392,355.572 71.750 C 355.722 71.108,355.911 70.246,355.993 69.833 C 356.360 67.985,356.662 66.526,356.821 65.833 C 356.916 65.421,357.077 64.671,357.178 64.167 C 357.280 63.663,357.464 62.800,357.587 62.250 C 357.711 61.700,357.935 60.650,358.085 59.917 C 358.597 57.416,358.702 56.917,358.922 55.917 C 359.044 55.367,359.230 54.467,359.335 53.917 C 359.441 53.367,359.603 52.617,359.695 52.250 C 359.787 51.883,359.920 51.246,359.990 50.833 C 360.061 50.421,360.206 49.708,360.314 49.250 C 360.421 48.792,360.586 48.042,360.680 47.583 C 360.773 47.125,360.953 46.262,361.080 45.667 C 361.207 45.071,361.434 43.983,361.585 43.250 C 361.736 42.517,361.923 41.654,362.000 41.333 C 362.260 40.250,362.542 38.921,362.671 38.167 C 362.741 37.754,363.039 36.329,363.333 35.000 C 363.627 33.671,363.927 32.246,363.999 31.833 C 364.213 30.621,364.654 28.723,364.830 28.259 L 364.993 27.829 370.455 27.873 L 375.917 27.917 375.969 28.648 C 375.998 29.050,375.946 29.575,375.854 29.815 C 375.762 30.054,375.635 30.662,375.572 31.167 L 375.458 32.083 376.271 31.326 C 377.478 30.201,379.108 29.067,380.375 28.471 C 380.535 28.395,380.835 28.246,381.040 28.140 C 382.544 27.362,386.594 26.957,388.986 27.344 M190.473 28.417 C 190.524 28.858,190.284 30.207,189.837 32.000 C 189.757 32.321,189.568 33.221,189.417 34.000 C 189.265 34.779,189.073 35.679,188.990 36.000 C 188.906 36.321,188.763 36.996,188.673 37.500 C 188.582 38.004,188.390 38.942,188.246 39.583 C 188.102 40.225,187.914 41.125,187.827 41.583 C 187.741 42.042,187.553 42.942,187.410 43.583 C 187.268 44.225,187.087 45.140,187.008 45.616 C 186.929 46.092,186.827 46.543,186.780 46.618 C 186.003 47.875,186.165 51.451,187.037 52.284 C 188.666 53.842,193.733 51.303,194.374 48.606 C 194.710 47.197,195.020 45.725,195.159 44.884 C 195.238 44.408,195.354 43.935,195.417 43.833 C 195.480 43.731,195.592 43.258,195.667 42.782 C 195.992 40.706,196.197 39.739,196.343 39.592 C 196.429 39.505,196.499 39.205,196.499 38.925 C 196.497 38.476,196.596 37.974,197.172 35.500 C 197.560 33.831,197.702 33.183,197.827 32.500 C 197.903 32.087,198.091 31.188,198.246 30.500 C 198.401 29.813,198.567 29.009,198.615 28.714 C 198.761 27.814,198.662 27.826,205.353 27.873 L 211.583 27.917 211.640 28.412 C 211.671 28.685,211.584 29.360,211.446 29.912 C 211.309 30.465,211.113 31.329,211.012 31.833 C 210.910 32.337,210.747 33.087,210.649 33.500 C 210.550 33.912,210.413 34.625,210.344 35.083 C 210.274 35.542,210.131 36.128,210.025 36.386 C 209.920 36.644,209.833 37.051,209.833 37.291 C 209.833 37.530,209.764 37.957,209.680 38.238 C 209.535 38.725,209.360 39.543,208.750 42.583 C 208.603 43.317,208.418 44.179,208.340 44.500 C 208.180 45.152,207.891 46.531,207.676 47.667 C 206.986 51.303,207.000 51.369,208.584 52.273 C 208.959 52.487,208.959 52.459,208.585 54.167 C 208.434 54.854,208.241 55.855,208.156 56.391 C 208.070 56.926,207.947 57.451,207.882 57.557 C 207.816 57.662,207.712 58.086,207.649 58.499 C 207.586 58.912,207.408 59.813,207.252 60.500 C 207.097 61.188,206.931 62.033,206.884 62.379 C 206.775 63.171,206.485 63.335,204.667 63.630 C 202.268 64.019,200.157 64.066,198.881 63.758 C 197.766 63.489,197.464 63.381,196.354 62.852 C 195.299 62.349,194.334 60.647,194.333 59.292 C 194.333 58.505,194.167 58.508,193.288 59.309 C 191.376 61.051,188.311 62.769,186.500 63.113 C 186.271 63.156,185.933 63.257,185.750 63.338 C 185.157 63.597,183.128 63.878,181.295 63.955 C 177.451 64.115,174.567 62.754,173.239 60.152 C 172.447 58.601,172.052 54.666,172.478 52.583 C 172.572 52.125,172.767 51.150,172.912 50.417 C 173.056 49.683,173.282 48.596,173.413 48.000 C 173.543 47.404,173.735 46.504,173.840 46.000 C 173.944 45.496,174.102 44.795,174.192 44.443 C 174.282 44.091,174.425 43.416,174.509 42.943 C 174.594 42.470,174.778 41.596,174.919 41.000 C 175.060 40.404,175.243 39.542,175.326 39.083 C 175.410 38.625,175.714 37.162,176.002 35.833 C 176.291 34.504,176.587 33.117,176.660 32.750 C 176.873 31.684,177.179 30.299,177.346 29.647 C 177.431 29.316,177.500 28.890,177.500 28.701 C 177.500 27.830,177.535 27.826,184.222 27.873 L 190.417 27.917 190.473 28.417 M12.667 28.734 C 14.454 28.880,16.985 29.074,18.290 29.167 C 19.595 29.259,21.170 29.408,21.790 29.497 C 22.410 29.587,23.313 29.662,23.798 29.663 C 25.194 29.669,25.615 30.003,30.770 35.195 C 37.875 42.351,37.919 41.385,30.140 49.101 C 26.641 52.571,25.287 53.811,24.917 53.884 C 24.642 53.938,23.442 54.063,22.250 54.161 C 21.058 54.260,19.258 54.411,18.250 54.498 C 4.728 55.666,4.006 55.611,3.256 53.352 C 2.797 51.970,2.950 30.644,3.424 29.836 C 4.375 28.217,5.170 28.122,12.667 28.734 M73.377 28.542 C 75.095 29.502,75.000 28.720,75.000 41.833 C 75.000 54.522,75.051 53.896,73.953 54.734 C 73.071 55.407,70.781 55.432,64.167 54.843 C 63.112 54.749,61.163 54.591,59.833 54.491 C 56.484 54.240,53.923 54.007,53.287 53.895 C 52.856 53.819,51.766 52.809,47.767 48.775 C 40.324 41.269,40.352 42.285,47.393 35.193 C 52.592 29.956,52.945 29.667,54.126 29.667 C 54.566 29.667,55.538 29.590,56.286 29.496 C 57.035 29.402,58.683 29.254,59.949 29.166 C 66.726 28.697,68.866 28.523,68.956 28.433 C 69.155 28.234,72.997 28.329,73.377 28.542 M149.250 38.842 C 146.272 40.334,144.333 43.737,144.333 47.469 C 144.333 53.297,149.933 54.688,154.060 49.884 C 154.612 49.241,154.679 49.011,155.530 44.833 C 156.448 40.322,152.952 36.986,149.250 38.842 M232.000 38.539 C 228.088 40.262,225.604 45.148,226.575 49.211 C 226.968 50.856,227.550 51.642,229.000 52.487 C 231.379 53.873,237.000 50.628,237.000 47.869 C 237.000 47.636,237.109 47.064,237.241 46.598 C 238.273 42.977,238.046 41.330,236.258 39.458 C 235.279 38.434,233.239 37.994,232.000 38.539 M274.169 38.788 C 269.053 41.261,267.350 50.144,271.563 52.379 C 274.423 53.897,279.230 51.113,279.841 47.583 C 280.186 45.589,280.346 44.822,280.501 44.414 C 281.167 42.663,279.731 39.519,277.849 38.608 C 276.944 38.170,275.278 38.251,274.169 38.788 M378.900 38.642 C 377.068 39.378,374.945 41.487,374.764 42.751 C 374.699 43.209,374.581 43.808,374.503 44.083 C 373.444 47.802,373.713 49.744,375.545 51.624 C 378.353 54.505,383.072 51.776,384.912 46.206 C 385.260 45.152,385.234 41.500,384.875 41.142 C 384.760 41.027,384.667 40.811,384.667 40.662 C 384.667 39.070,381.018 37.792,378.900 38.642 M40.188 45.072 C 40.871 45.362,50.452 54.919,50.847 55.706 C 51.113 56.234,51.459 59.314,51.602 62.417 C 51.666 63.815,52.059 68.847,52.337 71.841 C 52.736 76.143,52.379 77.234,50.333 77.956 C 49.488 78.254,28.788 78.256,27.816 77.958 C 25.989 77.398,25.343 76.031,25.646 73.369 C 25.850 71.575,26.032 69.313,26.333 64.833 C 26.423 63.504,26.570 61.929,26.661 61.333 C 26.752 60.737,26.828 59.500,26.831 58.583 C 26.837 55.845,26.673 56.086,32.478 50.253 C 35.420 47.297,37.667 45.167,37.843 45.167 C 38.010 45.167,38.193 45.092,38.250 45.000 C 38.401 44.755,39.541 44.797,40.188 45.072 " stroke="none" fill="#fbfbfb" fill-rule="evenodd"></path><path id="path3" d="M26.849 6.174 C 25.816 6.923,25.432 7.910,25.589 9.417 C 25.655 10.058,25.769 11.183,25.842 11.917 C 25.936 12.857,25.951 12.453,25.895 10.544 C 25.803 7.427,25.935 6.922,27.022 6.236 L 27.660 5.833 39.067 5.833 C 51.765 5.833,51.022 5.767,51.852 6.977 C 52.332 7.678,52.373 9.034,52.039 13.250 C 51.922 14.717,51.795 16.479,51.755 17.167 L 51.684 18.417 51.840 17.333 C 52.004 16.195,52.285 12.633,52.445 9.658 C 52.556 7.597,52.288 6.821,51.211 6.089 L 50.589 5.667 39.070 5.667 L 27.550 5.667 26.849 6.174 M26.036 14.667 C 26.030 15.079,26.085 15.754,26.158 16.167 C 26.343 17.208,26.356 16.151,26.174 14.833 L 26.047 13.917 26.036 14.667 M286.873 14.505 C 286.593 14.832,286.330 15.847,285.994 17.891 C 285.906 18.426,285.780 18.951,285.714 19.057 C 285.647 19.163,285.539 19.625,285.473 20.083 C 285.407 20.542,285.231 21.442,285.082 22.083 C 284.932 22.725,284.751 23.587,284.679 24.000 C 284.607 24.412,284.468 25.087,284.370 25.500 C 284.272 25.912,284.068 26.850,283.915 27.583 C 283.763 28.317,283.570 29.134,283.486 29.400 C 283.402 29.666,283.333 30.138,283.333 30.450 C 283.333 30.762,283.214 31.248,283.068 31.530 L 282.802 32.043 282.443 31.327 C 280.633 27.726,275.529 26.298,269.815 27.797 C 268.698 28.090,265.716 29.623,264.667 30.444 C 260.198 33.943,256.918 39.160,255.987 44.250 C 255.903 44.708,255.762 45.421,255.674 45.833 C 254.974 49.121,255.702 54.787,257.194 57.650 C 258.476 60.110,261.960 63.167,263.481 63.167 C 263.664 63.167,263.854 63.231,263.903 63.311 C 264.377 64.078,271.277 64.085,272.075 63.319 C 272.162 63.235,272.400 63.167,272.603 63.167 C 272.807 63.167,273.185 63.058,273.445 62.925 C 273.704 62.792,274.029 62.645,274.167 62.597 C 274.304 62.550,274.792 62.285,275.250 62.008 C 275.708 61.732,276.233 61.436,276.417 61.351 C 276.600 61.266,277.309 60.666,277.991 60.017 C 279.235 58.834,279.491 58.760,279.497 59.586 C 279.507 60.796,280.529 62.390,281.637 62.922 C 281.974 63.083,282.370 63.273,282.517 63.344 C 283.905 64.010,286.368 64.127,289.500 63.676 C 291.752 63.351,291.835 63.261,292.325 60.583 C 292.409 60.125,292.602 59.188,292.755 58.500 C 293.035 57.240,293.138 56.742,293.497 54.917 C 293.605 54.367,293.763 53.686,293.847 53.405 C 294.104 52.545,294.032 52.385,293.208 51.976 L 292.417 51.583 292.364 50.500 C 292.335 49.904,292.388 49.154,292.480 48.833 C 292.573 48.512,292.768 47.650,292.914 46.917 C 293.059 46.183,293.263 45.246,293.366 44.833 C 293.468 44.421,293.586 43.783,293.627 43.417 C 293.667 43.050,293.768 42.679,293.850 42.592 C 293.933 42.505,294.000 42.254,294.000 42.036 C 294.000 41.817,294.109 41.176,294.243 40.611 C 294.376 40.046,294.608 38.983,294.759 38.250 C 294.909 37.517,295.094 36.654,295.169 36.333 C 295.414 35.294,295.706 33.935,295.849 33.167 C 295.926 32.754,296.108 31.854,296.254 31.167 C 296.399 30.479,296.592 29.511,296.682 29.015 C 296.772 28.520,296.888 28.047,296.939 27.964 C 296.990 27.882,297.093 27.425,297.169 26.949 C 297.244 26.473,297.381 25.783,297.473 25.417 C 297.565 25.050,297.725 24.300,297.830 23.750 C 297.935 23.200,298.128 22.368,298.260 21.902 C 298.392 21.436,298.500 20.794,298.500 20.477 C 298.500 20.160,298.566 19.829,298.647 19.742 C 298.795 19.582,299.150 17.877,299.595 15.191 C 299.767 14.151,299.902 14.172,293.207 14.169 C 287.336 14.167,287.155 14.176,286.873 14.505 M299.252 15.542 C 299.190 16.023,299.075 16.679,298.996 17.000 C 298.844 17.617,298.536 19.052,298.081 21.250 C 297.929 21.983,297.743 22.846,297.668 23.167 C 297.593 23.488,297.415 24.313,297.271 25.000 C 297.128 25.688,296.890 26.813,296.744 27.500 C 296.597 28.188,296.400 29.125,296.307 29.583 C 296.214 30.042,296.038 30.867,295.916 31.417 C 295.794 31.967,295.573 33.017,295.424 33.750 C 295.276 34.483,295.082 35.314,294.994 35.595 C 294.906 35.877,294.834 36.252,294.835 36.428 C 294.836 36.711,294.627 37.709,294.157 39.667 C 294.080 39.987,293.898 40.850,293.753 41.583 C 293.607 42.317,293.405 43.254,293.304 43.667 C 293.203 44.079,293.060 44.754,292.985 45.167 C 292.639 47.091,292.501 47.742,292.326 48.272 C 291.765 49.972,292.210 52.333,293.092 52.333 C 293.492 52.333,293.633 52.740,293.495 53.500 C 293.321 54.466,292.922 56.413,292.575 58.000 C 292.424 58.688,292.241 59.550,292.167 59.917 C 291.907 61.211,291.623 62.585,291.579 62.761 C 291.377 63.564,283.900 63.721,282.268 62.957 C 280.635 62.193,279.998 61.263,279.869 59.455 C 279.761 57.954,279.689 57.949,278.281 59.325 C 276.188 61.370,274.576 62.313,271.667 63.190 C 270.638 63.501,265.370 63.502,264.333 63.193 C 263.370 62.905,261.336 61.955,261.334 61.792 C 261.334 61.723,261.220 61.667,261.082 61.667 C 260.944 61.667,260.319 61.160,259.693 60.542 C 253.314 54.236,254.726 40.546,262.562 32.733 C 263.831 31.467,265.798 29.833,266.053 29.833 C 266.090 29.833,266.666 29.533,267.333 29.167 C 268.000 28.800,268.671 28.500,268.823 28.500 C 268.975 28.500,269.171 28.429,269.258 28.343 C 269.999 27.608,276.124 27.229,277.583 27.828 C 279.957 28.802,281.536 30.102,282.327 31.736 C 282.881 32.882,283.207 32.697,283.485 31.078 C 283.579 30.531,283.778 29.558,283.927 28.917 C 284.076 28.275,284.262 27.412,284.341 27.000 C 284.419 26.587,284.721 25.162,285.012 23.833 C 285.303 22.504,285.595 21.079,285.660 20.667 C 285.725 20.254,285.858 19.617,285.956 19.250 C 286.277 18.049,286.500 17.001,286.500 16.695 C 286.500 16.529,286.615 16.005,286.756 15.530 L 287.013 14.667 293.189 14.667 L 299.365 14.667 299.252 15.542 M113.417 15.424 C 106.420 16.414,100.293 20.718,97.652 26.500 C 97.464 26.912,97.241 27.379,97.157 27.536 C 96.721 28.353,96.148 31.403,96.054 33.404 C 95.842 37.932,97.893 41.435,101.917 43.421 C 102.283 43.602,102.621 43.788,102.667 43.833 C 102.830 43.997,104.215 44.594,105.750 45.164 C 105.933 45.232,106.367 45.410,106.714 45.560 C 107.061 45.710,107.488 45.833,107.662 45.833 C 107.837 45.833,108.023 45.903,108.075 45.987 C 108.128 46.072,108.411 46.194,108.705 46.258 C 108.999 46.323,109.354 46.433,109.495 46.504 C 109.635 46.575,110.087 46.769,110.500 46.937 C 113.033 47.964,113.878 49.384,112.814 50.824 C 112.124 51.758,108.208 51.966,106.117 51.181 C 105.915 51.105,105.300 50.908,104.750 50.742 C 103.184 50.272,100.570 48.966,98.788 47.765 C 97.893 47.161,97.090 46.667,97.006 46.667 C 96.864 46.667,94.468 49.868,93.452 51.417 C 93.211 51.783,92.655 52.587,92.215 53.202 C 89.134 57.516,88.956 57.800,89.061 58.221 C 89.123 58.468,89.524 58.790,90.243 59.172 C 90.841 59.490,91.331 59.806,91.332 59.875 C 91.333 59.944,91.410 60.000,91.504 60.000 C 91.597 60.000,92.178 60.234,92.795 60.521 C 93.412 60.808,94.067 61.098,94.250 61.167 C 94.433 61.236,94.808 61.384,95.083 61.496 C 95.684 61.740,98.121 62.530,99.167 62.820 C 103.989 64.153,112.509 64.166,114.978 62.845 C 115.161 62.747,115.499 62.667,115.729 62.667 C 115.959 62.667,116.193 62.592,116.250 62.500 C 116.307 62.408,116.468 62.333,116.610 62.333 C 116.898 62.333,117.615 62.033,119.071 61.301 C 124.928 58.359,128.333 52.679,128.333 45.854 C 128.333 44.279,127.954 41.926,127.646 41.592 C 127.566 41.505,127.500 41.332,127.500 41.209 C 127.500 39.900,124.365 36.917,121.500 35.500 C 120.904 35.205,120.299 34.905,120.155 34.833 C 119.677 34.592,117.442 33.707,115.500 32.988 C 111.645 31.561,110.909 31.093,110.723 29.950 C 110.286 27.258,113.928 26.330,118.417 27.989 C 120.331 28.696,123.943 30.670,124.259 31.181 C 124.311 31.265,124.490 31.333,124.657 31.333 C 124.939 31.333,125.205 31.029,126.597 29.121 C 126.880 28.734,127.748 27.554,128.525 26.500 C 133.030 20.393,132.876 20.637,132.488 20.251 C 132.110 19.875,127.262 17.333,126.923 17.333 C 126.856 17.333,126.564 17.231,126.275 17.107 C 124.996 16.555,124.662 16.441,123.167 16.046 C 119.992 15.206,116.520 14.985,113.417 15.424 M122.118 16.087 C 124.729 16.716,126.290 17.311,129.583 18.931 C 131.781 20.012,132.447 20.498,132.233 20.866 C 131.632 21.900,124.872 30.993,124.701 30.996 C 124.583 30.998,124.093 30.719,123.613 30.375 C 118.786 26.919,112.631 25.835,110.831 28.124 C 110.365 28.717,110.363 30.448,110.828 31.039 C 111.230 31.549,112.634 32.239,115.167 33.170 C 117.635 34.078,119.199 34.710,120.291 35.241 C 120.772 35.475,121.204 35.667,121.251 35.667 C 121.604 35.667,124.602 37.751,125.370 38.530 C 130.655 43.895,127.648 56.365,120.089 60.432 C 118.348 61.369,116.627 62.167,116.348 62.167 C 116.246 62.167,116.032 62.233,115.873 62.314 C 115.545 62.480,114.281 62.809,113.167 63.017 C 108.622 63.868,103.056 63.608,98.583 62.336 C 98.308 62.258,97.840 62.145,97.544 62.084 C 97.247 62.024,96.961 61.905,96.909 61.821 C 96.856 61.736,96.671 61.667,96.496 61.667 C 96.321 61.667,95.894 61.544,95.547 61.394 C 95.200 61.243,94.767 61.065,94.583 60.998 C 94.400 60.930,93.745 60.641,93.129 60.354 C 92.512 60.068,91.971 59.833,91.926 59.833 C 91.882 59.833,91.273 59.486,90.574 59.062 C 89.012 58.113,89.006 58.198,90.812 55.667 C 92.513 53.282,95.779 48.627,96.335 47.794 C 96.843 47.033,97.111 46.915,97.566 47.251 C 104.198 52.147,112.443 53.618,113.467 50.086 C 113.966 48.366,112.451 47.174,107.750 45.589 C 107.017 45.341,106.267 45.079,106.083 45.006 C 105.900 44.933,105.412 44.742,105.000 44.582 C 99.598 42.482,97.036 39.792,96.471 35.622 C 95.271 26.775,102.088 18.060,111.837 15.977 C 114.687 15.369,119.343 15.419,122.118 16.087 M321.593 15.722 C 321.423 15.847,321.222 16.305,321.137 16.764 C 321.053 17.215,320.923 17.921,320.847 18.333 C 320.630 19.513,320.326 20.868,320.149 21.448 C 319.992 21.959,319.769 23.083,319.511 24.667 C 319.443 25.079,319.306 25.717,319.205 26.083 C 319.104 26.450,318.900 27.350,318.751 28.083 C 318.602 28.817,318.416 29.717,318.338 30.083 C 318.259 30.450,318.069 31.350,317.915 32.083 C 317.761 32.817,317.571 33.679,317.493 34.000 C 317.415 34.321,317.228 35.183,317.079 35.917 C 316.929 36.650,316.695 37.775,316.558 38.417 C 316.422 39.058,316.239 39.921,316.153 40.333 C 314.011 50.567,316.691 58.886,323.100 61.899 C 324.111 62.374,324.332 62.466,325.333 62.828 C 328.077 63.819,336.458 63.837,338.293 62.855 C 338.486 62.751,338.833 62.667,339.063 62.667 C 339.292 62.667,339.523 62.597,339.575 62.513 C 339.628 62.428,339.891 62.310,340.161 62.251 C 340.431 62.192,340.957 61.996,341.328 61.817 C 341.700 61.637,342.172 61.419,342.377 61.333 C 342.582 61.247,343.125 60.950,343.583 60.674 C 344.042 60.397,344.529 60.119,344.667 60.055 C 347.608 58.693,351.821 53.776,354.069 49.083 C 354.597 47.983,355.096 46.953,355.181 46.794 C 355.265 46.635,355.336 46.372,355.339 46.211 C 355.342 46.049,355.454 45.771,355.589 45.593 C 355.723 45.415,355.833 45.133,355.833 44.966 C 355.833 44.799,355.904 44.532,355.990 44.373 C 356.077 44.214,356.264 43.652,356.407 43.125 C 356.550 42.598,356.774 41.773,356.904 41.292 C 357.035 40.810,357.231 39.892,357.340 39.250 C 357.450 38.608,357.643 37.751,357.769 37.345 C 357.896 36.939,358.000 36.420,358.000 36.190 C 358.000 35.961,358.072 35.543,358.160 35.262 C 358.249 34.980,358.442 34.150,358.591 33.417 C 358.740 32.683,358.962 31.633,359.085 31.083 C 359.209 30.533,359.399 29.633,359.508 29.083 C 359.617 28.533,359.805 27.633,359.926 27.083 C 360.047 26.533,360.270 25.483,360.421 24.750 C 360.572 24.017,360.757 23.154,360.832 22.833 C 360.981 22.195,361.342 20.491,361.767 18.417 C 361.917 17.683,362.103 16.874,362.180 16.619 C 362.512 15.518,362.404 15.500,355.542 15.503 C 348.581 15.505,349.095 15.398,348.736 16.924 C 348.585 17.562,348.400 18.346,348.323 18.667 C 348.247 18.987,348.061 19.850,347.911 20.583 C 347.762 21.317,347.538 22.367,347.415 22.917 C 347.291 23.467,347.104 24.367,346.998 24.917 C 346.893 25.467,346.731 26.217,346.639 26.583 C 346.548 26.950,346.411 27.640,346.335 28.116 C 346.260 28.592,346.156 29.049,346.105 29.131 C 346.021 29.267,345.909 29.814,345.515 32.000 C 345.441 32.412,345.299 33.087,345.200 33.500 C 344.941 34.577,344.498 36.645,344.165 38.333 C 342.399 47.264,338.624 52.033,333.648 51.616 C 329.470 51.265,328.149 47.137,329.744 39.417 C 329.896 38.683,330.084 37.738,330.163 37.315 C 330.241 36.893,330.382 36.255,330.475 35.899 C 330.569 35.542,330.765 34.650,330.912 33.917 C 331.059 33.183,331.251 32.353,331.340 32.072 C 331.428 31.790,331.500 31.364,331.500 31.124 C 331.500 30.884,331.582 30.477,331.682 30.219 C 331.782 29.961,331.932 29.337,332.015 28.833 C 332.098 28.329,332.284 27.392,332.427 26.750 C 332.571 26.108,332.751 25.194,332.828 24.718 C 332.906 24.242,333.020 23.769,333.083 23.667 C 333.146 23.565,333.261 23.092,333.338 22.616 C 333.415 22.140,333.603 21.188,333.756 20.500 C 333.910 19.813,334.096 18.912,334.170 18.500 C 334.244 18.087,334.396 17.427,334.508 17.033 C 334.660 16.497,334.665 16.212,334.526 15.908 L 334.340 15.500 328.119 15.500 C 323.195 15.500,321.834 15.546,321.593 15.722 M334.251 16.708 C 334.072 17.718,333.893 18.580,333.585 19.917 C 333.437 20.558,333.256 21.421,333.182 21.833 C 333.109 22.246,332.969 22.921,332.871 23.333 C 332.774 23.746,332.608 24.533,332.504 25.083 C 332.399 25.633,332.205 26.465,332.073 26.931 C 331.941 27.398,331.834 27.923,331.835 28.098 C 331.836 28.273,331.715 28.942,331.567 29.583 C 331.127 31.489,331.045 31.853,330.749 33.250 C 330.593 33.983,330.369 35.033,330.252 35.583 C 330.135 36.133,329.950 37.033,329.841 37.583 C 329.732 38.133,329.564 38.883,329.468 39.250 C 328.964 41.168,328.733 46.063,329.071 47.667 C 330.075 52.428,335.199 53.465,339.320 49.743 C 340.701 48.495,343.000 44.723,343.000 43.704 C 343.000 43.531,343.055 43.334,343.122 43.267 C 343.277 43.112,343.654 41.951,343.831 41.083 C 343.906 40.717,344.096 39.854,344.253 39.167 C 344.784 36.845,345.015 35.754,345.159 34.884 C 345.238 34.408,345.344 33.951,345.395 33.869 C 345.479 33.733,345.591 33.186,345.985 31.000 C 346.059 30.587,346.201 29.912,346.301 29.500 C 346.400 29.087,346.557 28.375,346.650 27.917 C 346.744 27.458,346.936 26.558,347.078 25.917 C 347.569 23.699,347.809 22.578,348.077 21.250 C 348.225 20.517,348.418 19.686,348.506 19.405 C 348.594 19.123,348.666 18.748,348.665 18.572 C 348.664 18.395,348.794 17.744,348.952 17.125 L 349.240 16.000 355.537 16.000 L 361.833 16.000 361.833 16.503 C 361.833 16.779,361.726 17.435,361.594 17.961 C 361.373 18.848,361.072 20.214,360.651 22.250 C 360.489 23.036,360.158 24.587,359.834 26.083 C 359.682 26.784,359.341 28.402,358.901 30.500 C 358.757 31.188,358.571 31.980,358.486 32.262 C 358.402 32.543,358.333 32.914,358.333 33.085 C 358.333 33.255,358.220 33.888,358.082 34.489 C 357.720 36.061,357.378 37.611,357.160 38.667 C 356.574 41.505,355.815 44.333,355.349 45.417 C 355.270 45.600,354.997 46.275,354.741 46.917 C 351.709 54.538,345.629 60.549,339.167 62.315 C 338.754 62.428,338.042 62.624,337.583 62.752 C 334.964 63.478,328.569 63.460,326.000 62.718 C 317.482 60.258,314.036 52.108,316.500 40.250 C 316.691 39.333,316.911 38.246,316.989 37.833 C 317.067 37.421,317.329 36.183,317.570 35.083 C 317.812 33.983,318.128 32.521,318.272 31.833 C 318.416 31.146,318.638 30.096,318.765 29.500 C 318.893 28.904,319.069 28.022,319.157 27.539 C 319.245 27.057,319.354 26.601,319.400 26.527 C 319.446 26.453,319.561 25.948,319.656 25.404 C 319.751 24.861,319.950 23.854,320.097 23.167 C 320.245 22.479,320.429 21.617,320.506 21.250 C 320.583 20.883,320.763 20.058,320.905 19.417 C 321.048 18.775,321.244 17.805,321.341 17.262 C 321.438 16.719,321.555 16.213,321.602 16.137 C 321.648 16.062,324.541 16.000,328.031 16.000 L 334.376 16.000 334.251 16.708 M26.372 18.417 C 26.363 19.150,26.461 20.537,26.590 21.500 L 26.824 23.250 26.722 21.750 C 26.666 20.925,26.568 19.537,26.504 18.667 L 26.388 17.083 26.372 18.417 M51.369 21.458 C 51.258 22.627,51.179 24.033,51.193 24.583 L 51.221 25.583 51.346 24.333 C 51.543 22.384,51.724 19.333,51.644 19.333 C 51.604 19.333,51.480 20.290,51.369 21.458 M26.857 25.378 C 26.814 27.731,26.629 27.469,32.500 33.375 C 36.524 37.423,37.856 38.667,38.166 38.667 C 38.513 38.667,38.479 38.620,37.925 38.337 C 37.108 37.921,27.466 28.120,27.283 27.520 C 27.210 27.280,27.089 26.408,27.015 25.583 L 26.881 24.083 26.857 25.378 M51.023 26.771 C 50.966 27.656,50.236 28.528,45.714 33.115 C 42.157 36.722,40.723 38.068,40.167 38.319 C 39.754 38.506,39.536 38.661,39.683 38.663 C 40.320 38.672,41.188 37.907,45.772 33.298 C 50.574 28.471,51.275 27.619,51.119 26.804 C 51.051 26.446,51.044 26.444,51.023 26.771 M147.667 27.422 C 141.189 28.539,135.274 33.574,132.598 40.250 C 131.766 42.324,131.687 42.565,131.417 43.833 C 131.271 44.521,131.079 45.314,130.992 45.595 C 130.717 46.483,130.794 52.911,131.094 54.072 C 132.057 57.798,132.892 59.388,134.863 61.248 C 135.988 62.309,136.496 62.640,138.083 63.345 C 139.838 64.124,145.060 64.103,145.908 63.314 C 145.995 63.233,146.196 63.167,146.355 63.167 C 147.284 63.167,149.925 61.582,151.391 60.145 L 152.365 59.191 152.277 59.887 C 152.126 61.075,151.869 62.474,151.772 62.631 C 151.721 62.713,151.606 63.186,151.517 63.682 C 151.427 64.178,151.229 65.146,151.076 65.833 C 150.923 66.521,150.737 67.421,150.663 67.833 C 150.588 68.246,150.440 68.921,150.333 69.333 C 150.110 70.189,150.184 72.750,150.445 73.250 C 150.541 73.433,150.753 73.846,150.916 74.167 C 152.357 76.992,156.977 78.099,163.042 77.072 C 164.810 76.773,164.848 76.742,165.138 75.313 C 165.256 74.729,165.462 73.833,165.594 73.322 C 165.725 72.812,165.833 72.171,165.833 71.897 C 165.833 71.624,165.902 71.329,165.985 71.242 C 166.069 71.155,166.222 70.596,166.325 70.000 C 166.719 67.728,166.817 67.234,166.981 66.699 C 167.198 65.985,167.065 65.667,166.549 65.667 C 165.269 65.667,164.288 64.493,164.644 63.388 C 164.757 63.037,164.924 62.337,165.015 61.833 C 165.425 59.561,165.519 59.105,165.605 58.964 C 165.656 58.882,165.762 58.425,165.841 57.949 C 165.920 57.473,166.102 56.558,166.245 55.917 C 166.389 55.275,166.574 54.321,166.656 53.798 C 166.739 53.274,166.847 52.779,166.897 52.699 C 166.946 52.618,167.062 52.147,167.153 51.651 C 167.245 51.156,167.437 50.225,167.580 49.583 C 167.723 48.942,167.907 47.988,167.990 47.464 C 168.072 46.940,168.189 46.432,168.250 46.333 C 168.311 46.235,168.426 45.726,168.507 45.202 C 168.588 44.679,168.777 43.725,168.928 43.083 C 169.079 42.442,169.266 41.579,169.343 41.167 C 169.529 40.181,169.830 38.728,170.000 38.000 C 170.295 36.734,170.655 35.058,170.733 34.583 C 170.779 34.308,170.933 33.558,171.076 32.917 C 171.219 32.275,171.406 31.363,171.490 30.890 C 171.575 30.417,171.732 29.739,171.838 29.383 C 171.945 29.027,172.006 28.551,171.974 28.326 L 171.917 27.917 166.481 27.873 C 160.006 27.820,160.852 27.395,160.050 31.101 L 159.758 32.453 159.087 31.432 C 156.741 27.861,152.914 26.517,147.667 27.422 M228.888 27.400 C 228.230 27.501,227.636 27.640,227.568 27.708 C 227.500 27.777,227.309 27.833,227.145 27.833 C 226.527 27.833,223.363 29.393,222.048 30.346 C 217.851 33.385,214.337 38.923,213.226 44.250 C 212.566 47.412,212.550 51.724,213.189 54.139 C 213.374 54.842,213.570 55.604,213.623 55.833 C 213.891 56.982,215.466 59.495,216.656 60.671 C 217.775 61.778,220.002 63.167,220.657 63.167 C 220.809 63.167,221.005 63.230,221.092 63.308 C 222.081 64.188,226.377 64.136,229.833 63.202 C 231.637 62.714,233.764 61.423,235.441 59.798 C 236.741 58.538,236.747 58.538,236.920 59.750 C 237.130 61.229,238.502 63.167,239.338 63.167 C 239.482 63.167,239.671 63.232,239.758 63.311 C 241.022 64.465,248.837 63.943,249.094 62.687 C 249.143 62.447,249.249 61.987,249.329 61.667 C 249.638 60.427,249.864 59.384,249.997 58.583 C 250.073 58.125,250.211 57.450,250.304 57.083 C 250.397 56.717,250.560 55.967,250.666 55.417 C 250.772 54.867,250.964 54.010,251.092 53.512 C 251.336 52.566,251.224 52.167,250.717 52.167 C 249.716 52.167,249.242 50.569,249.748 48.901 C 249.885 48.452,249.997 47.872,249.998 47.614 C 249.999 47.356,250.072 47.009,250.161 46.844 C 250.313 46.559,250.499 45.685,250.825 43.718 C 250.904 43.242,251.010 42.785,251.061 42.702 C 251.112 42.620,251.230 42.147,251.323 41.651 C 251.416 41.156,251.612 40.188,251.757 39.500 C 251.903 38.813,252.076 37.912,252.143 37.499 C 252.209 37.086,252.316 36.662,252.382 36.557 C 252.447 36.451,252.572 35.926,252.659 35.391 C 252.746 34.855,252.935 33.892,253.077 33.250 C 253.220 32.608,253.406 31.708,253.491 31.250 C 253.575 30.792,253.730 30.180,253.833 29.890 C 253.937 29.601,253.998 29.076,253.969 28.724 L 253.917 28.083 247.686 28.040 C 241.091 27.993,241.109 27.991,240.943 28.797 C 240.250 32.178,240.188 32.300,239.679 31.309 C 238.031 28.100,233.949 26.622,228.888 27.400 M383.667 27.428 C 382.168 27.727,381.477 27.914,381.040 28.140 C 380.835 28.246,380.535 28.395,380.375 28.471 C 379.108 29.067,377.478 30.201,376.271 31.326 L 375.458 32.083 375.572 31.167 C 375.635 30.662,375.762 30.054,375.854 29.815 C 375.946 29.575,375.998 29.050,375.969 28.648 L 375.917 27.917 370.455 27.873 L 364.993 27.829 364.830 28.259 C 364.654 28.723,364.213 30.621,363.999 31.833 C 363.927 32.246,363.627 33.671,363.333 35.000 C 363.039 36.329,362.741 37.754,362.671 38.167 C 362.542 38.921,362.260 40.250,362.000 41.333 C 361.923 41.654,361.736 42.517,361.585 43.250 C 361.434 43.983,361.207 45.071,361.080 45.667 C 360.953 46.262,360.773 47.125,360.680 47.583 C 360.586 48.042,360.421 48.792,360.314 49.250 C 360.206 49.708,360.061 50.421,359.990 50.833 C 359.920 51.246,359.787 51.883,359.695 52.250 C 359.603 52.617,359.441 53.367,359.335 53.917 C 359.230 54.467,359.044 55.367,358.922 55.917 C 358.702 56.917,358.597 57.416,358.085 59.917 C 357.935 60.650,357.711 61.700,357.587 62.250 C 357.464 62.800,357.280 63.663,357.178 64.167 C 357.077 64.671,356.916 65.421,356.821 65.833 C 356.662 66.526,356.360 67.985,355.993 69.833 C 355.911 70.246,355.722 71.108,355.572 71.750 C 355.422 72.392,355.239 73.307,355.165 73.784 C 355.091 74.261,354.953 74.899,354.857 75.201 C 354.762 75.503,354.661 76.087,354.634 76.500 L 354.583 77.250 360.897 77.294 C 367.699 77.341,367.667 77.345,367.667 76.464 C 367.667 76.191,367.771 75.581,367.898 75.109 C 368.025 74.637,368.222 73.800,368.334 73.250 C 368.537 72.260,368.696 71.502,369.241 68.917 C 369.395 68.183,369.592 67.353,369.677 67.072 C 369.763 66.790,369.833 66.382,369.833 66.166 C 369.833 65.949,369.938 65.354,370.067 64.844 C 370.292 63.949,370.614 62.492,370.972 60.750 C 371.066 60.292,371.191 59.695,371.250 59.425 L 371.356 58.933 371.851 59.842 C 372.673 61.350,374.086 62.522,376.083 63.350 C 377.837 64.077,383.447 64.052,384.242 63.314 C 384.329 63.233,384.537 63.167,384.703 63.167 C 385.888 63.167,389.822 60.655,391.905 58.569 C 394.133 56.337,397.167 51.685,397.167 50.498 C 397.167 50.357,397.268 50.093,397.392 49.912 C 397.517 49.731,397.662 49.396,397.716 49.167 C 397.770 48.938,397.935 48.300,398.083 47.750 C 399.025 44.244,398.990 38.674,398.006 35.667 C 396.724 31.750,394.275 29.163,390.417 27.652 C 389.165 27.162,385.594 27.043,383.667 27.428 M154.417 27.959 C 154.875 28.142,155.446 28.370,155.685 28.466 C 156.447 28.772,158.138 30.492,158.939 31.776 C 159.365 32.460,159.765 32.959,159.829 32.885 C 159.991 32.694,160.499 30.748,160.505 30.294 C 160.507 30.087,160.646 29.504,160.813 29.000 L 161.117 28.083 166.434 28.083 C 171.061 28.083,171.746 28.116,171.721 28.333 C 171.694 28.568,171.417 29.923,170.920 32.250 C 170.802 32.800,170.502 34.225,170.252 35.417 C 170.002 36.608,169.685 38.108,169.549 38.750 C 169.412 39.392,169.240 40.217,169.167 40.583 C 169.093 40.950,168.912 41.813,168.764 42.500 C 168.616 43.188,168.418 44.195,168.323 44.738 C 168.228 45.281,168.112 45.786,168.067 45.860 C 168.021 45.935,167.913 46.390,167.827 46.873 C 167.740 47.355,167.553 48.275,167.410 48.917 C 167.266 49.558,167.088 50.421,167.013 50.833 C 166.872 51.607,166.599 52.918,166.337 54.083 C 166.254 54.450,166.063 55.350,165.913 56.083 C 165.762 56.817,165.538 57.867,165.415 58.417 C 165.291 58.967,165.101 59.867,164.993 60.417 C 164.884 60.967,164.692 61.854,164.564 62.388 C 164.099 64.346,164.517 65.483,165.805 65.764 C 166.050 65.817,166.344 65.890,166.458 65.925 C 166.698 65.999,166.716 66.626,166.505 67.583 C 166.425 67.950,166.205 69.000,166.017 69.917 C 165.829 70.833,165.556 72.108,165.410 72.750 C 164.949 74.780,164.849 75.236,164.743 75.793 C 164.686 76.092,164.514 76.403,164.361 76.485 C 163.919 76.721,159.615 77.167,157.780 77.167 C 156.177 77.167,155.863 77.112,154.167 76.537 C 151.422 75.607,149.965 72.869,150.565 69.768 C 151.015 67.440,151.333 65.968,151.508 65.405 C 151.595 65.123,151.667 64.697,151.667 64.457 C 151.667 64.218,151.741 63.826,151.832 63.586 C 151.923 63.346,152.069 62.760,152.156 62.284 C 152.242 61.807,152.432 60.787,152.578 60.018 C 152.910 58.263,152.916 58.265,151.643 59.539 C 149.918 61.263,147.850 62.560,146.102 63.013 C 145.817 63.087,145.283 63.225,144.917 63.320 C 140.272 64.519,135.098 62.426,133.002 58.500 C 126.830 46.943,135.044 29.831,147.833 27.599 C 149.059 27.385,153.602 27.634,154.417 27.959 M234.667 27.790 C 234.896 27.886,235.421 28.100,235.833 28.268 C 237.475 28.934,238.936 30.320,239.613 31.855 C 240.179 33.138,240.735 32.136,241.120 29.140 C 241.227 28.315,241.034 28.338,247.782 28.336 C 254.088 28.333,253.975 28.316,253.671 29.236 C 253.569 29.546,253.417 30.164,253.333 30.608 C 253.197 31.330,252.941 32.565,252.509 34.583 C 252.430 34.950,252.239 35.850,252.083 36.583 C 251.927 37.317,251.691 38.404,251.558 39.000 C 251.425 39.596,251.253 40.421,251.176 40.833 C 251.098 41.246,250.910 42.146,250.757 42.833 C 250.604 43.521,250.406 44.489,250.317 44.985 C 250.227 45.480,250.112 45.953,250.061 46.036 C 250.010 46.118,249.907 46.575,249.831 47.051 C 249.755 47.527,249.614 48.217,249.517 48.583 C 249.004 50.529,249.406 52.069,250.519 52.423 C 250.900 52.544,250.920 53.013,250.603 54.406 C 250.477 54.962,250.248 56.017,250.095 56.750 C 249.942 57.483,249.711 58.571,249.583 59.167 C 249.455 59.762,249.265 60.663,249.162 61.167 C 248.831 62.780,248.791 62.852,248.083 63.117 C 246.962 63.535,241.622 63.621,240.389 63.240 C 238.185 62.558,237.167 61.267,237.167 59.153 C 237.167 57.915,236.999 57.897,235.910 59.020 C 234.308 60.672,230.607 63.000,229.583 63.000 C 229.434 63.000,228.946 63.120,228.497 63.267 C 227.279 63.665,222.266 63.521,221.083 63.054 C 215.607 60.887,213.000 56.522,213.000 49.519 C 213.000 38.785,220.047 29.231,229.167 27.600 C 229.925 27.464,234.242 27.614,234.667 27.790 M389.872 27.805 C 389.979 27.912,390.206 28.000,390.376 28.000 C 390.829 28.000,392.619 28.925,393.602 29.666 C 399.161 33.861,400.200 44.453,395.862 52.718 C 392.109 59.870,386.360 63.645,379.500 63.463 C 377.915 63.421,376.724 63.312,376.417 63.181 C 374.040 62.161,372.948 61.253,372.031 59.533 C 371.272 58.109,371.233 58.124,370.833 60.000 C 370.726 60.504,370.538 61.367,370.416 61.917 C 370.193 62.925,369.784 64.880,369.474 66.417 C 369.382 66.875,369.200 67.680,369.070 68.206 C 368.940 68.732,368.833 69.347,368.833 69.573 C 368.833 69.799,368.764 70.157,368.679 70.367 C 368.594 70.578,368.402 71.350,368.253 72.083 C 367.645 75.078,367.462 75.946,367.311 76.542 L 367.153 77.167 360.993 77.167 L 354.833 77.167 354.833 76.688 C 354.833 76.424,354.946 75.890,355.083 75.500 C 355.221 75.110,355.333 74.600,355.333 74.366 C 355.333 74.132,355.406 73.710,355.494 73.428 C 355.582 73.147,355.777 72.317,355.927 71.583 C 356.264 69.942,356.642 68.135,356.835 67.250 C 356.915 66.883,357.103 65.983,357.254 65.250 C 357.405 64.517,357.629 63.467,357.752 62.917 C 357.876 62.367,358.062 61.467,358.167 60.917 C 358.271 60.367,358.433 59.625,358.526 59.268 C 358.618 58.911,358.756 58.274,358.831 57.851 C 358.986 56.982,359.370 55.144,359.756 53.417 C 359.899 52.775,360.079 51.913,360.154 51.500 C 360.326 50.563,360.916 47.769,361.246 46.333 C 361.382 45.737,361.611 44.650,361.755 43.917 C 361.899 43.183,362.082 42.321,362.163 42.000 C 362.243 41.679,362.435 40.779,362.588 40.000 C 362.741 39.221,362.975 38.096,363.107 37.500 C 363.239 36.904,363.424 36.042,363.517 35.583 C 363.697 34.702,364.031 33.133,364.331 31.750 C 364.431 31.292,364.646 30.279,364.809 29.500 L 365.105 28.083 370.390 28.039 C 376.284 27.990,376.044 27.940,375.705 29.137 C 374.651 32.866,374.796 33.206,376.685 31.430 C 378.040 30.155,379.142 29.371,380.420 28.773 C 380.785 28.603,381.212 28.397,381.369 28.317 C 381.667 28.165,382.609 27.906,383.750 27.663 C 384.737 27.453,389.633 27.566,389.872 27.805 M177.764 28.093 C 177.619 28.238,177.500 28.512,177.500 28.701 C 177.500 28.890,177.431 29.316,177.346 29.647 C 177.179 30.299,176.873 31.684,176.660 32.750 C 176.587 33.117,176.291 34.504,176.002 35.833 C 175.714 37.162,175.410 38.625,175.326 39.083 C 175.243 39.542,175.060 40.404,174.919 41.000 C 174.778 41.596,174.594 42.470,174.509 42.943 C 174.425 43.416,174.282 44.091,174.192 44.443 C 174.102 44.795,173.944 45.496,173.840 46.000 C 173.735 46.504,173.543 47.404,173.413 48.000 C 173.282 48.596,173.056 49.683,172.912 50.417 C 172.767 51.150,172.572 52.125,172.478 52.583 C 172.280 53.550,172.372 57.605,172.614 58.583 C 173.490 62.125,176.752 64.144,181.295 63.955 C 183.128 63.878,185.157 63.597,185.750 63.338 C 185.933 63.257,186.271 63.156,186.500 63.113 C 188.311 62.769,191.376 61.051,193.288 59.309 C 194.167 58.508,194.333 58.505,194.333 59.292 C 194.334 60.647,195.299 62.349,196.354 62.852 C 197.464 63.381,197.766 63.489,198.881 63.758 C 200.157 64.066,202.268 64.019,204.667 63.630 C 206.485 63.335,206.775 63.171,206.884 62.379 C 206.931 62.033,207.097 61.188,207.252 60.500 C 207.408 59.813,207.586 58.912,207.649 58.499 C 207.712 58.086,207.816 57.662,207.882 57.557 C 207.947 57.451,208.070 56.926,208.156 56.391 C 208.241 55.855,208.434 54.854,208.585 54.167 C 208.959 52.459,208.959 52.487,208.584 52.273 C 207.218 51.494,207.045 51.094,207.351 49.417 C 207.772 47.111,208.098 45.488,208.340 44.500 C 208.418 44.179,208.603 43.317,208.750 42.583 C 209.360 39.543,209.535 38.725,209.680 38.238 C 209.764 37.957,209.833 37.530,209.833 37.291 C 209.833 37.051,209.920 36.644,210.025 36.386 C 210.131 36.128,210.274 35.542,210.344 35.083 C 210.413 34.625,210.550 33.912,210.649 33.500 C 210.747 33.087,210.910 32.337,211.012 31.833 C 211.113 31.329,211.309 30.465,211.446 29.912 C 211.584 29.360,211.671 28.685,211.640 28.412 L 211.583 27.917 205.353 27.873 C 198.662 27.826,198.761 27.814,198.615 28.714 C 198.567 29.009,198.401 29.813,198.246 30.500 C 198.091 31.188,197.903 32.087,197.827 32.500 C 197.702 33.183,197.560 33.831,197.172 35.500 C 196.596 37.974,196.497 38.476,196.499 38.925 C 196.499 39.205,196.429 39.505,196.343 39.592 C 196.197 39.739,195.992 40.706,195.667 42.782 C 195.592 43.258,195.480 43.731,195.417 43.833 C 195.354 43.935,195.238 44.408,195.159 44.884 C 195.020 45.725,194.710 47.197,194.374 48.606 C 193.733 51.303,188.666 53.842,187.037 52.284 C 186.165 51.451,186.003 47.875,186.780 46.618 C 186.827 46.543,186.929 46.092,187.008 45.616 C 187.087 45.140,187.268 44.225,187.410 43.583 C 187.553 42.942,187.741 42.042,187.827 41.583 C 187.914 41.125,188.102 40.225,188.246 39.583 C 188.390 38.942,188.582 38.004,188.673 37.500 C 188.763 36.996,188.906 36.321,188.990 36.000 C 189.073 35.679,189.265 34.779,189.417 34.000 C 189.568 33.221,189.757 32.321,189.837 32.000 C 190.284 30.207,190.524 28.858,190.473 28.417 L 190.417 27.917 184.222 27.873 C 178.755 27.834,177.997 27.860,177.764 28.093 M190.261 28.184 C 190.324 28.286,190.295 28.642,190.196 28.976 C 190.098 29.310,189.898 30.183,189.753 30.917 C 189.607 31.650,189.405 32.587,189.304 33.000 C 189.203 33.412,189.065 34.087,188.998 34.500 C 188.821 35.591,188.176 38.667,188.002 39.250 C 187.920 39.525,187.808 40.050,187.753 40.417 C 187.697 40.783,187.586 41.346,187.505 41.667 C 187.425 41.987,187.234 42.887,187.082 43.667 C 186.930 44.446,186.738 45.383,186.655 45.750 C 186.092 48.232,186.000 48.824,186.003 49.969 C 186.008 52.280,186.737 53.050,188.833 52.957 C 191.108 52.857,194.191 50.661,194.622 48.833 C 194.854 47.851,195.654 44.113,195.995 42.417 C 196.106 41.867,196.297 40.967,196.421 40.417 C 196.544 39.867,196.766 38.817,196.915 38.083 C 197.063 37.350,197.249 36.487,197.329 36.167 C 197.555 35.255,197.863 33.822,198.010 33.000 C 198.083 32.587,198.265 31.725,198.414 31.083 C 198.562 30.442,198.743 29.554,198.814 29.110 C 198.997 27.973,198.808 28.005,205.365 28.003 C 211.997 28.000,211.595 27.907,211.251 29.360 C 211.113 29.941,210.931 30.754,210.846 31.167 C 210.401 33.325,210.115 34.699,209.891 35.750 C 209.755 36.392,209.576 37.254,209.493 37.667 C 209.410 38.079,209.255 38.792,209.147 39.250 C 209.039 39.708,208.894 40.421,208.823 40.833 C 208.752 41.246,208.614 41.921,208.517 42.333 C 208.419 42.746,208.257 43.496,208.155 44.000 C 207.947 45.033,207.623 46.524,207.346 47.723 C 206.752 50.295,206.903 51.673,207.834 52.205 C 208.591 52.637,208.629 52.829,208.270 54.406 C 208.144 54.962,207.912 56.017,207.756 56.750 C 207.599 57.483,207.407 58.383,207.329 58.750 C 207.251 59.117,207.065 60.017,206.917 60.750 C 206.494 62.845,206.496 62.841,205.667 63.142 C 204.227 63.666,198.322 63.536,197.167 62.956 C 195.302 62.020,194.587 60.813,194.650 58.708 C 194.674 57.928,194.257 58.005,193.250 58.966 C 189.806 62.255,185.959 63.598,180.353 63.469 C 173.685 63.316,171.305 59.196,173.102 50.917 C 173.241 50.275,173.421 49.450,173.501 49.083 C 173.582 48.717,173.766 47.854,173.911 47.167 C 174.055 46.479,174.281 45.429,174.412 44.833 C 174.543 44.237,174.725 43.375,174.816 42.917 C 175.268 40.649,175.540 39.371,175.667 38.917 C 175.743 38.642,175.854 38.154,175.912 37.833 C 176.035 37.155,176.277 35.998,176.590 34.583 C 176.712 34.033,176.933 32.983,177.082 32.250 C 177.231 31.517,177.420 30.617,177.501 30.250 C 177.583 29.883,177.694 29.304,177.748 28.963 C 177.802 28.622,177.975 28.268,178.132 28.176 C 178.546 27.934,190.111 27.942,190.261 28.184 M4.424 28.793 C 3.001 29.792,3.089 28.985,3.037 41.485 C 2.986 53.614,2.986 53.614,3.963 54.546 C 4.869 55.411,7.385 55.512,12.833 54.905 C 15.325 54.627,13.659 54.663,8.657 54.996 C 4.981 55.240,4.609 55.173,3.818 54.119 L 3.417 53.583 3.417 41.803 L 3.417 30.022 3.917 29.496 C 5.019 28.337,5.021 28.337,12.417 28.911 C 15.830 29.176,19.115 29.419,21.333 29.569 L 22.583 29.654 21.583 29.493 C 21.033 29.404,19.533 29.257,18.250 29.165 C 16.967 29.074,14.454 28.880,12.667 28.734 C 6.610 28.240,5.197 28.250,4.424 28.793 M68.954 28.435 C 68.898 28.491,68.117 28.598,67.218 28.674 L 65.583 28.811 67.417 28.735 C 68.425 28.693,70.081 28.613,71.097 28.557 C 73.409 28.430,73.985 28.695,74.668 30.202 C 74.847 30.595,74.994 30.782,74.996 30.617 C 75.004 29.957,74.304 29.060,73.377 28.542 C 72.994 28.327,69.154 28.235,68.954 28.435 M62.250 29.008 C 61.792 29.079,60.854 29.151,60.167 29.168 C 59.479 29.184,58.129 29.299,57.167 29.423 C 54.844 29.721,58.851 29.486,64.083 29.017 L 65.583 28.882 64.333 28.880 C 63.646 28.879,62.708 28.936,62.250 29.008 M24.083 29.784 C 25.105 29.920,25.689 30.416,30.417 35.157 C 37.574 42.334,37.559 41.423,30.631 48.427 C 24.778 54.346,26.016 53.770,17.917 54.341 C 16.450 54.444,15.137 54.551,15.000 54.578 C 14.344 54.709,17.218 54.647,18.481 54.504 C 19.271 54.414,20.929 54.261,22.167 54.163 C 23.404 54.065,24.642 53.940,24.917 53.885 C 25.286 53.811,26.648 52.564,30.140 49.101 C 35.799 43.487,35.828 43.454,35.949 42.277 C 36.122 40.604,36.068 40.530,30.770 35.195 C 25.874 30.263,25.129 29.646,24.132 29.692 L 23.583 29.717 24.083 29.784 M52.667 30.078 C 51.788 30.667,42.743 39.837,42.435 40.450 C 42.067 41.182,42.088 42.620,42.476 43.250 C 43.209 44.441,52.733 53.798,53.317 53.901 C 53.629 53.957,54.792 54.077,55.901 54.169 C 57.009 54.261,58.704 54.411,59.667 54.502 C 60.629 54.593,61.867 54.657,62.417 54.644 C 63.679 54.615,63.353 54.570,60.250 54.340 C 55.797 54.012,53.760 53.812,53.250 53.655 C 52.743 53.499,42.963 43.810,42.539 43.044 C 42.277 42.570,42.282 41.029,42.548 40.554 C 42.828 40.052,52.136 30.632,52.740 30.239 C 53.010 30.063,53.610 29.873,54.074 29.817 L 54.917 29.714 54.083 29.700 C 53.469 29.690,53.096 29.789,52.667 30.078 M150.333 38.103 C 145.210 39.049,141.998 48.199,145.523 51.805 C 147.563 53.892,151.015 53.355,153.836 50.510 C 154.783 49.555,154.945 49.202,155.334 47.250 C 155.747 45.177,155.806 44.894,156.010 43.994 C 156.728 40.845,153.519 37.515,150.333 38.103 M232.222 38.149 C 230.004 38.722,227.037 42.090,226.481 44.667 C 226.412 44.987,226.277 45.550,226.182 45.917 C 225.828 47.272,226.143 49.758,226.804 50.833 C 228.650 53.837,232.335 53.835,235.555 50.827 C 236.915 49.558,237.006 49.386,237.409 47.333 C 237.562 46.554,237.760 45.680,237.848 45.392 C 239.130 41.218,235.991 37.177,232.222 38.149 M275.066 38.148 C 273.421 38.573,270.978 40.762,270.110 42.588 C 269.850 43.135,269.572 43.709,269.492 43.862 C 268.865 45.065,268.656 48.169,269.099 49.678 C 270.285 53.713,274.800 54.226,278.395 50.734 C 279.704 49.463,279.837 49.203,280.173 47.250 C 280.283 46.608,280.486 45.720,280.622 45.277 C 281.872 41.211,278.744 37.197,275.066 38.148 M379.389 38.149 C 377.688 38.588,374.783 41.080,374.578 42.274 C 374.518 42.628,374.405 43.142,374.328 43.417 C 374.250 43.692,374.062 44.554,373.909 45.333 C 373.756 46.112,373.566 46.961,373.487 47.219 C 373.048 48.653,374.754 51.824,376.406 52.645 C 377.308 53.094,379.364 53.093,380.167 52.644 C 381.588 51.849,382.939 50.657,383.619 49.599 C 384.293 48.549,384.833 47.471,384.833 47.175 C 384.833 47.024,384.910 46.824,385.003 46.731 C 385.422 46.311,385.646 43.536,385.379 42.072 C 384.838 39.103,382.252 37.410,379.389 38.149 M152.965 38.652 C 155.104 39.755,156.083 42.115,155.530 44.833 C 154.679 49.011,154.612 49.241,154.060 49.884 C 148.744 56.073,142.078 51.566,144.987 43.750 C 146.428 39.879,150.410 37.335,152.965 38.652 M235.166 38.667 C 237.753 39.986,238.410 42.495,237.241 46.598 C 237.109 47.064,237.000 47.636,237.000 47.869 C 237.000 49.985,233.450 52.760,230.769 52.740 C 229.428 52.730,229.205 52.662,228.118 51.932 C 226.171 50.624,225.816 46.270,227.397 43.083 C 228.409 41.043,230.094 39.379,232.000 38.539 C 232.716 38.224,234.434 38.293,235.166 38.667 M277.849 38.608 C 279.731 39.519,281.167 42.663,280.501 44.414 C 280.346 44.822,280.186 45.589,279.841 47.583 C 279.230 51.113,274.423 53.897,271.563 52.379 C 267.350 50.144,269.053 41.261,274.169 38.788 C 275.278 38.251,276.944 38.170,277.849 38.608 M382.619 38.618 C 383.349 38.948,384.667 40.264,384.667 40.662 C 384.667 40.811,384.760 41.027,384.875 41.142 C 385.234 41.500,385.260 45.152,384.912 46.206 C 383.072 51.776,378.353 54.505,375.545 51.624 C 373.713 49.744,373.444 47.802,374.503 44.083 C 374.581 43.808,374.699 43.209,374.764 42.751 C 375.151 40.045,380.062 37.462,382.619 38.618 M38.260 44.984 C 38.207 45.070,38.450 45.097,38.822 45.047 C 40.036 44.884,40.606 45.333,45.713 50.474 C 50.416 55.209,50.728 55.589,50.996 56.917 L 51.130 57.583 51.141 56.917 C 51.148 56.550,51.022 56.004,50.862 55.704 C 50.428 54.891,40.855 45.355,40.188 45.072 C 39.560 44.805,38.403 44.753,38.260 44.984 M32.478 50.253 C 26.749 56.010,26.812 55.921,26.866 58.250 C 26.892 59.398,26.903 59.444,26.946 58.583 C 26.974 58.033,27.084 57.133,27.191 56.583 L 27.386 55.583 32.401 50.525 C 35.160 47.744,37.567 45.405,37.750 45.328 C 38.005 45.221,38.020 45.185,37.812 45.177 C 37.662 45.171,35.262 47.456,32.478 50.253 M74.681 53.540 C 74.412 54.163,73.564 54.994,73.178 55.013 C 72.998 55.022,72.983 55.053,73.130 55.112 C 73.606 55.303,75.140 53.669,74.968 53.154 C 74.939 53.068,74.810 53.242,74.681 53.540 M64.583 54.846 C 66.271 55.029,72.318 55.362,72.642 55.290 C 72.793 55.256,71.867 55.172,70.583 55.104 C 69.300 55.036,67.652 54.910,66.921 54.824 C 66.190 54.737,65.103 54.678,64.504 54.693 L 63.417 54.719 64.583 54.846 M51.206 59.250 C 51.198 59.983,51.296 61.446,51.423 62.500 L 51.654 64.417 51.564 62.417 C 51.515 61.317,51.417 59.854,51.347 59.167 L 51.221 57.917 51.206 59.250 M26.529 62.377 C 26.420 63.315,26.345 64.646,26.362 65.333 C 26.383 66.181,26.408 66.315,26.440 65.750 C 26.465 65.292,26.575 63.996,26.683 62.870 C 26.922 60.380,26.804 60.001,26.529 62.377 M51.765 66.417 C 51.845 67.749,52.054 70.739,52.267 73.601 C 52.461 76.208,51.963 77.251,50.287 77.748 C 49.127 78.093,29.008 78.122,27.866 77.781 C 26.101 77.252,25.788 76.508,25.893 73.085 C 25.973 70.463,25.919 70.653,25.585 74.167 C 25.396 76.157,26.102 77.346,27.832 77.956 C 28.717 78.268,49.494 78.251,50.394 77.937 C 52.034 77.366,52.571 76.339,52.445 74.011 C 52.288 71.114,51.992 67.322,51.834 66.167 L 51.685 65.083 51.765 66.417 M26.082 67.879 C 26.018 68.559,25.997 69.258,26.035 69.433 C 26.073 69.607,26.163 69.088,26.235 68.280 C 26.307 67.471,26.327 66.772,26.281 66.726 C 26.235 66.680,26.145 67.198,26.082 67.879 " stroke="none" fill="#aadac0" fill-rule="evenodd"></path><path id="path4" d="M26.984 6.246 C 25.788 7.030,25.578 9.228,26.176 14.680 C 26.263 15.467,26.418 17.230,26.522 18.597 C 26.982 24.668,26.963 24.502,26.924 22.000 C 26.891 19.916,26.752 17.972,26.316 13.500 C 25.963 9.875,26.027 7.480,26.493 6.953 C 27.368 5.963,26.871 6.000,39.162 6.000 L 50.440 6.000 51.131 6.592 C 51.551 6.951,51.886 7.415,51.985 7.774 C 52.146 8.354,51.969 12.539,51.730 13.833 C 51.671 14.154,51.562 15.542,51.488 16.917 C 51.233 21.663,50.727 27.424,50.535 27.763 C 50.470 27.878,48.156 30.260,45.394 33.056 C 38.481 40.054,39.663 40.063,32.634 32.960 L 27.519 27.791 27.417 26.854 C 27.361 26.338,27.253 25.542,27.177 25.083 L 27.040 24.250 27.036 25.333 C 27.028 27.647,26.855 27.401,32.500 33.129 C 39.648 40.382,38.589 40.406,45.997 32.824 C 51.269 27.426,50.997 27.860,51.169 24.583 C 51.242 23.208,51.383 21.146,51.484 20.000 C 52.464 8.870,52.489 7.907,51.824 6.938 C 51.026 5.772,51.731 5.832,39.028 5.843 L 27.583 5.853 26.984 6.246 M148.375 27.615 C 148.535 27.657,148.798 27.657,148.958 27.615 C 149.119 27.573,148.987 27.539,148.667 27.539 C 148.346 27.539,148.215 27.573,148.375 27.615 M166.325 28.124 C 170.250 28.160,171.603 28.223,171.713 28.377 C 171.819 28.528,171.840 28.516,171.791 28.333 C 171.732 28.118,170.988 28.083,166.403 28.080 L 161.083 28.076 166.325 28.124 M181.302 28.125 C 182.981 28.152,185.681 28.152,187.302 28.125 C 188.924 28.097,187.550 28.075,184.250 28.075 C 180.950 28.075,179.624 28.098,181.302 28.125 M201.417 28.119 C 206.912 28.236,211.462 28.239,211.391 28.125 C 211.349 28.056,208.599 28.016,205.282 28.036 C 201.964 28.056,200.225 28.094,201.417 28.119 M365.109 28.125 C 365.066 28.194,366.618 28.231,368.557 28.208 C 375.134 28.128,375.767 28.071,370.468 28.036 C 367.563 28.016,365.151 28.056,365.109 28.125 M247.655 28.457 C 252.817 28.498,253.654 28.539,253.721 28.755 C 253.775 28.928,253.791 28.914,253.772 28.712 C 253.747 28.435,253.361 28.416,247.706 28.414 L 241.667 28.410 247.655 28.457 M4.750 28.812 C 4.475 28.983,4.063 29.326,3.833 29.575 L 3.417 30.027 3.417 41.805 L 3.417 53.583 3.818 54.119 C 4.415 54.914,5.099 55.171,6.525 55.138 L 7.750 55.110 6.417 55.013 C 5.007 54.911,4.613 54.734,3.964 53.909 L 3.583 53.425 3.583 41.837 C 3.583 28.631,3.456 29.728,5.083 28.924 C 5.596 28.671,5.788 28.510,5.583 28.507 C 5.400 28.504,5.025 28.641,4.750 28.812 M6.695 28.657 C 6.847 28.754,8.010 28.875,9.278 28.925 C 10.546 28.975,12.146 29.086,12.833 29.173 C 14.301 29.358,18.122 29.651,21.417 29.830 C 25.485 30.052,24.174 29.109,33.277 38.371 C 36.849 42.006,36.913 41.776,30.554 48.181 C 25.440 53.332,25.008 53.667,23.482 53.666 C 22.988 53.665,21.833 53.739,20.917 53.830 C 17.794 54.140,15.087 54.354,12.333 54.506 C 10.821 54.590,9.358 54.735,9.083 54.829 C 8.477 55.035,11.350 54.879,18.167 54.335 C 26.139 53.700,24.780 54.344,30.631 48.427 C 37.559 41.423,37.573 42.333,30.421 35.162 C 24.849 29.576,25.297 29.881,22.345 29.661 C 21.101 29.568,19.108 29.420,17.917 29.331 C 16.725 29.243,14.287 29.060,12.500 28.925 C 6.433 28.467,6.397 28.466,6.695 28.657 M68.750 28.678 C 68.017 28.751,66.217 28.897,64.750 29.002 C 60.673 29.296,57.902 29.508,56.250 29.652 L 54.750 29.783 56.333 29.810 C 57.204 29.825,58.629 29.763,59.500 29.672 C 62.650 29.345,65.304 29.136,68.083 28.999 C 69.642 28.922,71.104 28.782,71.333 28.690 C 71.855 28.479,70.796 28.474,68.750 28.678 M72.917 28.828 C 74.916 29.788,74.835 29.232,74.824 41.878 C 74.813 53.978,74.847 53.639,73.564 54.536 C 73.018 54.918,72.722 54.995,71.667 55.026 C 70.423 55.063,70.422 55.063,71.417 55.125 C 73.242 55.238,74.104 54.807,74.719 53.475 C 75.184 52.469,75.137 31.235,74.668 30.202 C 74.209 29.191,73.376 28.496,72.631 28.504 C 72.330 28.507,72.391 28.575,72.917 28.828 M52.812 30.209 C 52.150 30.619,42.875 39.966,42.548 40.553 C 41.642 42.179,42.074 42.837,47.786 48.534 C 53.363 54.096,52.811 53.722,55.833 53.981 C 60.351 54.368,62.132 54.509,64.500 54.667 C 65.829 54.756,67.479 54.872,68.167 54.925 C 69.107 54.997,69.346 54.976,69.130 54.838 C 68.972 54.738,67.510 54.586,65.880 54.502 C 63.076 54.356,61.407 54.226,57.326 53.835 C 56.359 53.742,55.183 53.667,54.712 53.667 C 53.311 53.667,53.122 53.518,47.947 48.365 C 42.271 42.713,42.066 42.413,42.747 40.784 C 43.268 39.537,52.611 30.418,53.667 30.126 C 54.515 29.891,54.540 29.871,54.000 29.854 C 53.658 29.843,53.166 29.990,52.812 30.209 M394.493 30.542 C 394.902 30.977,395.258 31.333,395.285 31.333 C 395.410 31.333,395.278 31.184,394.542 30.493 L 393.750 29.750 394.493 30.542 M219.662 32.792 L 218.583 33.917 219.708 32.838 C 220.753 31.836,220.910 31.667,220.787 31.667 C 220.761 31.667,220.255 32.173,219.662 32.792 M125.167 38.417 C 125.478 38.737,125.770 39.000,125.815 39.000 C 125.861 39.000,125.644 38.737,125.333 38.417 C 125.022 38.096,124.730 37.833,124.685 37.833 C 124.639 37.833,124.856 38.096,125.167 38.417 M380.375 37.948 C 380.535 37.990,380.798 37.990,380.958 37.948 C 381.119 37.906,380.988 37.872,380.667 37.872 C 380.346 37.872,380.215 37.906,380.375 37.948 M398.400 41.583 C 398.400 42.958,398.426 43.499,398.457 42.784 C 398.489 42.069,398.488 40.944,398.457 40.284 C 398.425 39.624,398.400 40.208,398.400 41.583 M271.744 40.208 L 270.917 41.083 271.792 40.256 C 272.273 39.801,272.667 39.408,272.667 39.381 C 272.667 39.257,272.512 39.395,271.744 40.208 M328.728 44.750 C 328.728 45.667,328.756 46.020,328.790 45.536 C 328.824 45.052,328.823 44.302,328.789 43.869 C 328.755 43.437,328.727 43.833,328.728 44.750 M385.437 44.423 C 385.380 44.572,385.340 44.819,385.348 44.972 C 385.356 45.125,385.428 45.029,385.509 44.758 C 385.666 44.232,385.610 43.972,385.437 44.423 M38.055 45.204 C 37.698 45.319,35.883 47.030,32.461 50.479 C 26.796 56.186,26.973 55.930,27.020 58.388 L 27.040 59.417 27.177 58.583 C 27.253 58.125,27.363 57.300,27.423 56.750 L 27.531 55.750 32.474 50.779 C 39.673 43.538,38.513 43.531,45.768 50.855 C 48.253 53.364,50.369 55.575,50.470 55.769 C 50.715 56.238,51.196 61.294,51.500 66.583 C 51.573 67.867,51.717 69.717,51.819 70.694 C 52.286 75.173,52.154 76.278,51.052 77.118 L 50.443 77.583 39.346 77.630 C 27.038 77.682,27.235 77.697,26.460 76.612 C 26.031 76.010,25.978 73.638,26.316 70.167 C 26.728 65.943,26.883 63.770,26.922 61.667 C 26.968 59.148,26.904 59.681,26.524 64.952 C 26.424 66.347,26.269 68.147,26.180 68.952 C 25.918 71.323,25.793 75.706,25.974 76.182 C 26.652 77.966,26.858 77.995,39.011 77.997 C 53.326 78.001,52.704 78.292,52.161 71.833 C 52.064 70.688,51.914 68.813,51.825 67.667 C 51.737 66.521,51.583 64.683,51.484 63.583 C 51.384 62.483,51.244 60.533,51.173 59.250 C 50.970 55.581,51.320 56.145,45.771 50.543 C 40.162 44.880,39.813 44.638,38.055 45.204 M255.731 49.500 C 255.731 50.646,255.758 51.115,255.790 50.542 C 255.823 49.969,255.823 49.031,255.790 48.458 C 255.758 47.885,255.731 48.354,255.731 49.500 M127.705 49.000 C 127.705 49.321,127.740 49.452,127.782 49.292 C 127.823 49.131,127.823 48.869,127.782 48.708 C 127.740 48.548,127.705 48.679,127.705 49.000 M185.881 49.917 C 185.882 50.375,185.915 50.543,185.953 50.289 C 185.991 50.036,185.990 49.661,185.951 49.456 C 185.911 49.251,185.880 49.458,185.881 49.917 M249.205 50.500 C 249.205 50.821,249.240 50.952,249.282 50.792 C 249.323 50.631,249.323 50.369,249.282 50.208 C 249.240 50.048,249.205 50.179,249.205 50.500 M148.375 53.119 C 148.627 53.158,149.040 53.158,149.292 53.119 C 149.544 53.081,149.337 53.050,148.833 53.050 C 148.329 53.050,148.123 53.081,148.375 53.119 M188.211 53.120 C 188.464 53.158,188.839 53.157,189.044 53.117 C 189.249 53.078,189.042 53.046,188.583 53.048 C 188.125 53.049,187.957 53.081,188.211 53.120 M230.461 53.121 C 230.761 53.158,231.211 53.157,231.461 53.119 C 231.712 53.081,231.467 53.051,230.917 53.052 C 230.367 53.053,230.162 53.084,230.461 53.121 M273.128 53.121 C 273.428 53.158,273.878 53.157,274.128 53.119 C 274.378 53.081,274.133 53.051,273.583 53.052 C 273.033 53.053,272.828 53.084,273.128 53.121 M377.708 53.119 C 377.960 53.158,378.373 53.158,378.625 53.119 C 378.877 53.081,378.671 53.050,378.167 53.050 C 377.662 53.050,377.456 53.081,377.708 53.119 M172.557 55.417 C 172.558 56.150,172.587 56.429,172.622 56.037 C 172.657 55.645,172.657 55.045,172.621 54.704 C 172.585 54.363,172.557 54.683,172.557 55.417 M235.910 58.875 L 235.083 59.750 235.996 58.917 C 236.499 58.458,236.942 58.065,236.983 58.042 C 237.023 58.019,236.984 58.000,236.897 58.000 C 236.809 58.000,236.365 58.394,235.910 58.875 M319.826 59.208 C 320.517 59.944,320.667 60.077,320.667 59.951 C 320.667 59.925,320.310 59.568,319.875 59.160 L 319.083 58.417 319.826 59.208 M104.625 63.451 C 104.831 63.491,105.169 63.491,105.375 63.451 C 105.581 63.411,105.412 63.379,105.000 63.379 C 104.587 63.379,104.419 63.411,104.625 63.451 M109.458 63.451 C 109.665 63.491,110.002 63.491,110.208 63.451 C 110.415 63.411,110.246 63.379,109.833 63.379 C 109.421 63.379,109.252 63.411,109.458 63.451 M203.375 63.448 C 203.535 63.490,203.798 63.490,203.958 63.448 C 204.119 63.406,203.987 63.372,203.667 63.372 C 203.346 63.372,203.215 63.406,203.375 63.448 M245.708 63.448 C 245.869 63.490,246.131 63.490,246.292 63.448 C 246.452 63.406,246.321 63.372,246.000 63.372 C 245.679 63.372,245.548 63.406,245.708 63.448 M150.379 71.167 C 150.379 71.579,150.411 71.748,150.451 71.542 C 150.491 71.335,150.491 70.998,150.451 70.792 C 150.411 70.585,150.379 70.754,150.379 71.167 " stroke="none" fill="#969a9f" fill-rule="evenodd"></path></g></svg>